<?xml version="1.0" encoding="utf-8" ?>
<svg xmlns="http://www.w3.org/2000/svg" xmlns:xlink="http://www.w3.org/1999/xlink"
    viewBox="0 0 20 40" width="20" height="40">
    <path fill="var(--logo-color-second, #006D77)"
        d="M8.589 1H0v25.334h8.589zm0 29.555V39a8.663 8.663 0 0 1-6.073-2.474A8.373 8.373 0 0 1 0 30.556h8.589ZM12.883 1c2.278 0 4.462.89 6.073 2.473a8.373 8.373 0 0 1 2.515 5.971c0 2.24-.904 4.388-2.515 5.972a8.664 8.664 0 0 1-6.073 2.473zm0 38V27.725c0-2.24.905-4.387 2.515-5.97a8.663 8.663 0 0 1 6.073-2.474v11.275c0 2.24-.904 4.387-2.515 5.97A8.664 8.664 0 0 1 12.883 39"></path>
    <!-- <path fill="#00262B" d="M0 0L162 0L162 277.562C161.763 277.716 161.512 277.851 161.233 277.913C159.071 278.394 154.714 277.999 152.326 278L129.146 278.003L36.0942 278.004L12.7433 278C8.91995 278 4.8769 278.264 1.07526 277.955C0.667581 277.922 0.341272 277.783 0 277.562L0 0Z"/> -->
    <!-- <path fill="#F5F8F8" d="M8.97904 14.0004C27.9671 13.7661 46.9981 13.9276 65.9886 14.0036L65.9811 134.089L65.9881 168.174C65.9896 173.022 66.4511 179.649 65.8765 184.256C65.7433 184.366 65.6097 184.486 65.4552 184.566C65.4205 184.584 65.3835 184.597 65.3482 184.613C65.2209 184.673 65.2399 184.68 65.0864 184.71C62.8585 185.145 52.1707 184.761 49.1227 184.763C36.328 184.771 23.3935 185.175 10.6131 184.747C9.98783 184.726 9.53804 184.663 8.9954 184.325C8.76287 164.769 8.97428 145.185 8.97406 125.627L8.97904 14.0004Z"/>
	<path fill="#F5F8F8" d="M148.182 137.36C149.201 137.24 150.309 137.296 151.34 137.267L151.348 190.553C151.354 200.143 151.95 210.116 150.855 219.639Q150.452 223.419 149.513 227.102Q148.575 230.785 147.12 234.297Q146.601 235.578 146.021 236.832Q145.44 238.087 144.8 239.312Q144.159 240.536 143.46 241.728Q142.76 242.921 142.004 244.077Q141.248 245.234 140.436 246.353Q139.624 247.471 138.759 248.549Q137.894 249.627 136.977 250.662Q136.061 251.696 135.095 252.685Q134.129 253.674 133.117 254.615Q132.104 255.556 131.047 256.446Q129.99 257.337 128.891 258.175Q127.792 259.013 126.653 259.797Q125.515 260.58 124.34 261.308Q123.164 262.035 121.955 262.705Q120.746 263.374 119.506 263.984Q118.265 264.594 116.997 265.143C113.489 266.631 100.92 270.895 97.602 269.551C97.5008 269.598 97.4002 269.644 97.2969 269.686C96.3029 270.092 95.3577 270.111 94.3662 269.694C94.7297 263.233 94.3775 256.528 94.3768 250.042L94.3748 209.952C94.3737 200.779 93.677 191.025 95.6846 182.032Q96.0833 180.229 96.5961 178.455Q97.1089 176.681 97.7338 174.943Q98.3588 173.206 99.0932 171.511Q99.8277 169.817 100.669 168.173Q101.51 166.529 102.454 164.942Q103.398 163.355 104.442 161.832Q105.485 160.308 106.624 158.854Q107.762 157.4 108.991 156.022Q109.927 154.992 110.911 154.008Q111.896 153.025 112.927 152.09Q113.958 151.156 115.033 150.273Q116.109 149.389 117.226 148.559Q118.343 147.729 119.499 146.955Q120.655 146.18 121.847 145.463Q123.04 144.745 124.265 144.087Q125.491 143.428 126.748 142.83Q128.004 142.231 129.288 141.695Q130.572 141.158 131.881 140.685Q133.189 140.211 134.52 139.802Q135.85 139.393 137.198 139.049Q138.546 138.705 139.91 138.427Q141.273 138.149 142.649 137.937Q144.024 137.726 145.408 137.581Q146.793 137.437 148.182 137.36Z"/>
	<path fill="#F5F8F8" d="M94.426 13.9867C97.623 14.1318 100.818 14.2616 103.98 14.7882Q105.067 14.9798 106.146 15.2133Q107.225 15.4467 108.294 15.7216Q109.362 15.9965 110.42 16.3125Q111.478 16.6284 112.522 16.985Q113.567 17.3415 114.597 17.7381Q115.627 18.1347 116.641 18.5707Q117.655 19.0068 118.651 19.4817Q119.647 19.9565 120.625 20.4695Q121.602 20.9825 122.559 21.5328Q123.516 22.0831 124.45 22.6699Q125.385 23.2568 126.297 23.8792Q127.208 24.5017 128.095 25.1589Q128.982 25.8161 129.843 26.507Q130.703 27.1979 131.537 27.9216Q132.37 28.6452 133.175 29.4005Q133.98 30.1557 134.755 30.9415Q135.738 31.9439 136.672 32.9928Q137.605 34.0417 138.486 35.1347Q139.368 36.2277 140.195 37.3622Q141.022 38.4967 141.794 39.67Q142.565 40.8434 143.278 42.0528Q143.991 43.2621 144.645 44.5047Q145.299 45.7473 145.892 47.0202Q146.484 48.2931 147.015 49.5932Q147.545 50.8934 148.011 52.2177Q148.478 53.5421 148.879 54.8875Q149.281 56.2329 149.617 57.5963Q149.952 58.9596 150.222 60.3377Q150.491 61.7157 150.693 63.1052Q150.895 64.4947 151.029 65.8923Q151.163 67.29 151.23 68.6925Q151.296 70.095 151.294 71.4991C151.214 86.7128 144.896 100.809 134.154 111.45C123.134 121.754 109.504 127.414 94.4022 127.75C94.1612 107.822 94.3769 87.8634 94.3741 67.9323C94.3716 49.9626 94.1225 31.9518 94.426 13.9867Z"/>
	<path fill="#F5F8F8" d="M9.11925 212.801C11.328 213.4 22.8087 212.971 25.8513 212.972C38.6886 212.98 51.6335 213.342 64.4597 212.963C65.0299 212.946 65.4668 212.869 65.9888 212.624L65.9695 251.721C65.9698 257 66.5184 264.472 65.8753 269.499C65.8274 269.552 65.8023 269.582 65.7449 269.631C65.0528 270.223 63.2668 269.95 62.3803 269.892Q60.9763 269.79 59.5789 269.62Q58.1815 269.449 56.794 269.212Q55.4065 268.974 54.0321 268.67Q52.6577 268.366 51.2997 267.995Q49.9416 267.624 48.6031 267.189Q47.2646 266.753 45.9487 266.253Q44.6329 265.752 43.3428 265.189Q42.0526 264.626 40.7913 264.001Q39.5299 263.376 38.3003 262.691Q37.0707 262.005 35.8757 261.261Q34.6807 260.517 33.5231 259.716Q32.3655 258.915 31.248 258.059Q30.1305 257.203 29.0558 256.294Q27.981 255.385 26.9515 254.425Q25.9221 253.465 24.9403 252.456Q23.9584 251.447 23.0266 250.392C14.4487 240.582 8.24337 226.021 9.11925 212.801Z"/> -->
</svg>
