<?xml version="1.0" encoding="utf-8" ?>
<svg xmlns="http://www.w3.org/2000/svg" xmlns:xlink="http://www.w3.org/1999/xlink" width="1024" height="1024">
	<path fill="#16365F" d="M516.786 155.601Q525.876 155.983 534.94 156.758Q544.005 157.532 553.027 158.699Q562.05 159.866 571.013 161.422Q579.977 162.978 588.864 164.921Q597.752 166.864 606.547 169.19Q615.343 171.516 624.029 174.22Q632.715 176.925 641.276 180.003Q649.837 183.081 658.257 186.527C664.878 189.19 674.954 191.954 679.871 197.179C680.013 197.331 680.148 197.489 680.287 197.644L695.521 197.59C691.145 194.363 687.258 190.613 686.357 184.969C685.911 182.171 686.379 179.164 688.223 176.928C689.902 174.892 692.387 173.821 694.991 173.679C699.832 173.413 704.367 176.114 707.747 179.354C711.552 183.001 714.021 187.493 716.31 192.182C719.448 184.801 722.991 177.714 731.001 174.632C734.196 173.402 737.807 173.201 740.917 174.796Q741.314 174.997 741.689 175.235Q742.064 175.474 742.414 175.749Q742.764 176.023 743.085 176.331Q743.406 176.639 743.695 176.977Q743.984 177.315 744.238 177.68Q744.492 178.045 744.709 178.433Q744.926 178.821 745.104 179.229Q745.281 179.637 745.418 180.06C746.423 183.215 745.693 186.636 744.092 189.458C742.088 192.989 739.225 195.109 736.03 197.458C744.843 197.473 760.301 196.557 768.131 197.732C770.757 198.126 773.497 198.807 775.386 200.794C776.159 201.607 776.723 202.543 777.296 203.5L777.46 218.791C775.636 222.279 774.563 223.549 770.967 225.169L771.001 250.163C773.025 255.661 785.651 263.671 790.587 267.484C792.983 267.832 795.592 268.34 797.119 270.42C799.95 274.278 798.601 281.98 798.411 286.495C796.19 289.248 794.223 291.435 790.529 291.841C790.216 291.875 789.902 291.899 789.588 291.928C789.735 292.106 789.879 292.288 790.029 292.464C792.242 295.059 796.118 296.664 798.687 298.989C803.302 303.164 807.449 308.847 811.346 313.705C820.721 325.388 828.433 337.932 835.85 350.908Q839.864 357.775 843.588 364.804Q847.311 371.832 850.737 379.011Q854.163 386.189 857.286 393.505Q860.408 400.82 863.222 408.26Q866.036 415.699 868.537 423.25Q871.037 430.801 873.219 438.45Q875.401 446.099 877.262 453.832Q879.122 461.566 880.657 469.37Q883.331 482.396 885.06 495.58Q886.79 508.765 887.565 522.04C887.786 526 887.6 552.32 888.064 553.959C888.357 554.998 890.779 555.106 891.794 555.329C898.52 555.475 922.009 553.837 926.343 557.512C929.002 564.804 929.149 574.652 930.093 582.409Q933.052 606.052 935.689 629.733Q946.138 730.369 958.437 830.797C964.348 831.641 983.859 835.702 986.979 840.833C987.766 842.127 987.636 842.563 987.444 843.99C983.612 849.965 971.681 852.218 965.213 853.64C925.546 862.36 882.269 865.864 841.752 868.663C828.861 869.553 815.863 871.098 802.965 871.489C791.06 871.496 778.898 872.648 766.98 873.206L699.775 875.912Q604.775 879.081 509.729 877.975Q397.28 876.726 285.266 866.756Q257.606 864.039 230.04 860.485C220.222 859.249 210.386 857.749 200.53 856.908L195.994 855.477C186.425 853.237 176.445 851.57 167.405 847.642L169.566 846.949C158.325 846.931 147.084 846.606 135.839 846.628C128.135 846.643 119.86 847.279 112.217 846.479C110.942 846.345 109.781 845.932 108.8 845.089C107.593 844.053 106.788 842.496 106.725 840.899C106.67 839.523 107.047 838.312 108.017 837.306C109.699 835.564 113.128 835.12 115.399 834.951C121.376 834.505 127.714 834.974 133.729 835.011L166.878 835.051L278.229 834.993C278.911 832.149 279.674 829.595 280.866 826.919C257.919 811.396 237.101 793.366 219.399 772.038C215.78 767.677 211.536 762.966 208.815 757.973L171.068 758.043C152.638 758.076 132.998 760.561 118.745 746.28C109.428 736.946 107.074 727.299 107.014 714.423L106.971 490.353L106.865 431.697C106.845 420.733 105.919 408.87 107.694 398.05C109.116 389.385 114.031 381.075 120.202 374.933C134.256 360.941 151.468 362.917 169.711 362.893C173.941 361.757 179.325 362.31 183.697 362.284C187.435 352.976 193.531 344.332 198.824 335.837C226.066 292.112 257.655 258.725 299.446 228.69C305.694 224.199 311.657 218.909 318.622 215.555C319.952 243.127 328.058 267.534 349.003 286.659C352.23 289.605 355.701 292.345 359.154 295.022C362.105 296.953 365.041 298.912 368.013 300.81C380.804 307.74 395.22 311.141 409.719 311.76Q410.872 311.814 412.025 311.84Q413.179 311.865 414.333 311.862Q415.487 311.86 416.64 311.828Q417.794 311.797 418.946 311.738Q420.098 311.678 421.249 311.59Q422.4 311.502 423.548 311.386Q424.696 311.27 425.841 311.125Q426.985 310.981 428.126 310.808Q429.267 310.636 430.404 310.435Q431.54 310.235 432.671 310.006Q433.802 309.778 434.927 309.521Q436.052 309.265 437.171 308.981Q438.289 308.697 439.4 308.386Q440.511 308.075 441.614 307.736Q442.718 307.397 443.812 307.032Q444.906 306.666 445.992 306.274Q447.077 305.881 448.152 305.462Q449.227 305.043 450.291 304.598Q451.356 304.152 452.409 303.681Q453.462 303.209 454.503 302.712Q455.545 302.215 456.573 301.692Q457.602 301.169 458.618 300.621Q459.633 300.073 460.635 299.501Q461.637 298.928 462.624 298.331Q463.611 297.734 464.584 297.112Q465.556 296.491 466.513 295.846Q467.47 295.201 468.41 294.532Q469.351 293.864 470.275 293.172Q471.198 292.481 472.105 291.767Q473.012 291.053 473.9 290.317Q474.789 289.581 475.659 288.824Q476.53 288.066 477.381 287.287Q478.249 286.477 479.097 285.646Q479.945 284.815 480.773 283.964Q481.601 283.113 482.408 282.242Q483.215 281.371 484 280.48Q484.786 279.59 485.55 278.681Q486.313 277.772 487.055 276.844Q487.796 275.917 488.515 274.972Q489.234 274.027 489.93 273.065Q490.625 272.103 491.297 271.124Q491.97 270.145 492.618 269.15Q493.266 268.156 493.89 267.145Q494.514 266.135 495.113 265.11Q495.713 264.085 496.287 263.046Q496.861 262.007 497.41 260.954Q497.959 259.901 498.482 258.835Q499.005 257.769 499.503 256.691Q500 255.613 500.471 254.523Q500.942 253.433 501.386 252.332Q501.83 251.231 502.248 250.12Q502.666 249.008 503.056 247.887Q503.447 246.766 503.81 245.635Q504.173 244.505 504.509 243.366Q504.845 242.227 505.153 241.08Q505.461 239.934 505.741 238.78Q506.021 237.626 506.273 236.466Q506.525 235.305 506.749 234.139Q506.973 232.973 507.169 231.802Q507.364 230.631 507.531 229.456Q507.699 228.28 507.837 227.101Q507.976 225.922 508.086 224.739Q508.196 223.557 508.277 222.373Q508.358 221.188 508.411 220.002C508.918 206.016 504.709 179.127 494.87 168.591C496.783 165.592 500.248 162.95 501.511 159.664C504.933 160.091 512.325 161.992 515.138 159.645C516.377 158.612 516.528 157.088 516.786 155.601Z"/>
	<path fill="#C3D8E7" d="M516.786 155.601Q525.876 155.983 534.94 156.758Q544.005 157.532 553.027 158.699Q562.05 159.866 571.013 161.422Q579.977 162.978 588.864 164.921Q597.752 166.864 606.547 169.19Q615.343 171.516 624.029 174.22Q632.715 176.925 641.276 180.003Q649.837 183.081 658.257 186.527C664.878 189.19 674.954 191.954 679.871 197.179C680.013 197.331 680.148 197.489 680.287 197.644L695.521 197.59C691.145 194.363 687.258 190.613 686.357 184.969C685.911 182.171 686.379 179.164 688.223 176.928C689.902 174.892 692.387 173.821 694.991 173.679C699.832 173.413 704.367 176.114 707.747 179.354C711.552 183.001 714.021 187.493 716.31 192.182C719.448 184.801 722.991 177.714 731.001 174.632C734.196 173.402 737.807 173.201 740.917 174.796Q741.314 174.997 741.689 175.235Q742.064 175.474 742.414 175.749Q742.764 176.023 743.085 176.331Q743.406 176.639 743.695 176.977Q743.984 177.315 744.238 177.68Q744.492 178.045 744.709 178.433Q744.926 178.821 745.104 179.229Q745.281 179.637 745.418 180.06C746.423 183.215 745.693 186.636 744.092 189.458C742.088 192.989 739.225 195.109 736.03 197.458C744.843 197.473 760.301 196.557 768.131 197.732C770.757 198.126 773.497 198.807 775.386 200.794C776.159 201.607 776.723 202.543 777.296 203.5L777.46 218.791C775.636 222.279 774.563 223.549 770.967 225.169L771.001 250.163C773.025 255.661 785.651 263.671 790.587 267.484C792.983 267.832 795.592 268.34 797.119 270.42C799.95 274.278 798.601 281.98 798.411 286.495C796.19 289.248 794.223 291.435 790.529 291.841C790.216 291.875 789.902 291.899 789.588 291.928C789.735 292.106 789.879 292.288 790.029 292.464C792.242 295.059 796.118 296.664 798.687 298.989C803.302 303.164 807.449 308.847 811.346 313.705C820.721 325.388 828.433 337.932 835.85 350.908Q839.864 357.775 843.588 364.804Q847.311 371.832 850.737 379.011Q854.163 386.189 857.286 393.505Q860.408 400.82 863.222 408.26Q866.036 415.699 868.537 423.25Q871.037 430.801 873.219 438.45Q875.401 446.099 877.262 453.832Q879.122 461.566 880.657 469.37Q883.331 482.396 885.06 495.58Q886.79 508.765 887.565 522.04C887.786 526 887.6 552.32 888.064 553.959C888.357 554.998 890.779 555.106 891.794 555.329C886.89 555.437 881.941 555.224 877.035 555.157L871.334 555.12L856.534 555.171C855.943 540.671 854.916 526.083 847.772 513.1C839.83 498.666 827.713 489.918 812.13 485.341C809.632 484.8 807.112 484.34 804.603 483.848C793.506 482.899 783.559 484.184 773.636 489.412Q770.795 488.077 767.829 487.049Q764.863 486.02 761.806 485.308Q758.749 484.596 755.634 484.21Q752.518 483.823 749.38 483.766C733.545 483.391 719.312 488.935 707.887 499.893C691.376 515.729 690.248 533.765 689.791 555.369L670.511 555.254L670.784 406.768C670.869 393.514 668.445 382.993 658.799 373.348Q657.791 372.337 656.705 371.411Q655.619 370.484 654.463 369.647Q653.306 368.811 652.087 368.069Q650.867 367.328 649.592 366.687Q648.316 366.045 646.994 365.508Q645.671 364.971 644.31 364.541Q642.949 364.112 641.558 363.793Q640.166 363.474 638.754 363.267C628.393 361.784 615.03 362.792 604.314 362.787L533.488 362.848L311.728 362.58C314.538 358.083 318.655 353.839 322.004 349.71C336.305 332.077 351.586 316.455 368.013 300.81C380.804 307.74 395.22 311.141 409.719 311.76Q410.872 311.814 412.025 311.84Q413.179 311.865 414.333 311.862Q415.487 311.86 416.64 311.828Q417.794 311.797 418.946 311.738Q420.098 311.678 421.249 311.59Q422.4 311.502 423.548 311.386Q424.696 311.27 425.841 311.125Q426.985 310.981 428.126 310.808Q429.267 310.636 430.404 310.435Q431.54 310.235 432.671 310.006Q433.802 309.778 434.927 309.521Q436.052 309.265 437.171 308.981Q438.289 308.697 439.4 308.386Q440.511 308.075 441.614 307.736Q442.718 307.397 443.812 307.032Q444.906 306.666 445.992 306.274Q447.077 305.881 448.152 305.462Q449.227 305.043 450.291 304.598Q451.356 304.152 452.409 303.681Q453.462 303.209 454.503 302.712Q455.545 302.215 456.573 301.692Q457.602 301.169 458.618 300.621Q459.633 300.073 460.635 299.501Q461.637 298.928 462.624 298.331Q463.611 297.734 464.584 297.112Q465.556 296.491 466.513 295.846Q467.47 295.201 468.41 294.532Q469.351 293.864 470.275 293.172Q471.198 292.481 472.105 291.767Q473.012 291.053 473.9 290.317Q474.789 289.581 475.659 288.824Q476.53 288.066 477.381 287.287Q478.249 286.477 479.097 285.646Q479.945 284.815 480.773 283.964Q481.601 283.113 482.408 282.242Q483.215 281.371 484 280.48Q484.786 279.59 485.55 278.681Q486.313 277.772 487.055 276.844Q487.796 275.917 488.515 274.972Q489.234 274.027 489.93 273.065Q490.625 272.103 491.297 271.124Q491.97 270.145 492.618 269.15Q493.266 268.156 493.89 267.145Q494.514 266.135 495.113 265.11Q495.713 264.085 496.287 263.046Q496.861 262.007 497.41 260.954Q497.959 259.901 498.482 258.835Q499.005 257.769 499.503 256.691Q500 255.613 500.471 254.523Q500.942 253.433 501.386 252.332Q501.83 251.231 502.248 250.12Q502.666 249.008 503.056 247.887Q503.447 246.766 503.81 245.635Q504.173 244.505 504.509 243.366Q504.845 242.227 505.153 241.08Q505.461 239.934 505.741 238.78Q506.021 237.626 506.273 236.466Q506.525 235.305 506.749 234.139Q506.973 232.973 507.169 231.802Q507.364 230.631 507.531 229.456Q507.699 228.28 507.837 227.101Q507.976 225.922 508.086 224.739Q508.196 223.557 508.277 222.373Q508.358 221.188 508.411 220.002C508.918 206.016 504.709 179.127 494.87 168.591C496.783 165.592 500.248 162.95 501.511 159.664C504.933 160.091 512.325 161.992 515.138 159.645C516.377 158.612 516.528 157.088 516.786 155.601Z"/>
	<path fill="#16365F" d="M716.31 192.182C719.448 184.801 722.991 177.714 731.001 174.632C734.196 173.402 737.807 173.201 740.917 174.796Q741.314 174.997 741.689 175.235Q742.064 175.474 742.414 175.749Q742.764 176.023 743.085 176.331Q743.406 176.639 743.695 176.977Q743.984 177.315 744.238 177.68Q744.492 178.045 744.709 178.433Q744.926 178.821 745.104 179.229Q745.281 179.637 745.418 180.06C746.423 183.215 745.693 186.636 744.092 189.458C742.088 192.989 739.225 195.109 736.03 197.458C744.843 197.473 760.301 196.557 768.131 197.732C770.757 198.126 773.497 198.807 775.386 200.794C776.159 201.607 776.723 202.543 777.296 203.5L777.46 218.791C775.636 222.279 774.563 223.549 770.967 225.169L771.001 250.163C773.025 255.661 785.651 263.671 790.587 267.484C792.983 267.832 795.592 268.34 797.119 270.42C799.95 274.278 798.601 281.98 798.411 286.495C796.19 289.248 794.223 291.435 790.529 291.841C790.216 291.875 789.902 291.899 789.588 291.928C788.817 295.563 788.085 299.212 787.106 302.799L786.088 307.066C785.137 313.712 783.397 320.399 782.074 326.992C780.908 332.802 780.132 338.95 778.413 344.612C777.82 346.565 776.979 348.45 775.814 350.131C773.496 353.473 771.039 354.124 767.196 354.832C760.421 356.08 753.059 355.553 746.184 355.592L709.198 355.712L683.463 355.658C678.567 355.639 673.429 355.931 668.577 355.317C665.967 354.986 663.444 353.766 661.332 352.23C659.361 350.797 657.668 349.097 656.676 346.844C653.065 338.646 652.762 327.648 651.508 318.787L647.541 292.153C645.952 291.741 644.634 291.405 643.382 290.261C641.016 288.1 640.109 284.27 639.986 281.197C639.836 277.442 640.54 273.296 643.311 270.54C648.298 265.581 659.903 267.451 666.547 267.549L666.497 251.121L666.513 245.667C666.517 239.881 666.39 234.062 666.78 228.287C666.808 228.094 666.841 227.902 666.863 227.708C667.346 223.447 662.145 224.336 659.351 220.971C658.683 216.357 658.289 209.871 659.225 205.356C660.053 201.361 661.722 199.762 665.091 197.641C670.138 197.498 675.235 197.655 680.287 197.644L695.521 197.59C691.145 194.363 687.258 190.613 686.357 184.969C685.911 182.171 686.379 179.164 688.223 176.928C689.902 174.892 692.387 173.821 694.991 173.679C699.832 173.413 704.367 176.114 707.747 179.354C711.552 183.001 714.021 187.493 716.31 192.182Z"/>
	<path fill="#C3D8E7" d="M771.001 250.163C773.025 255.661 785.651 263.671 790.587 267.484L779.654 267.609L771.269 267.606C770.205 262.264 770.967 255.636 771.001 250.163Z"/>
	<path fill="#F9FBFB" d="M771.269 267.606Q771.286 264.642 771.455 261.682L771.91 261.274C773.892 262.355 778.786 264.652 779.441 266.797C779.523 267.065 779.583 267.338 779.654 267.609L771.269 267.606Z"/>
	<path fill="#8EC7AB" d="M713.786 291.905C736.747 290.736 759.882 292.037 782.86 291.725Q779.383 307.005 776.083 322.325C774.685 329.146 773.823 336.769 771.519 343.306C770.983 344.829 770.398 345.909 768.986 346.804C767.597 347.684 766.113 347.853 764.515 347.969L763.846 347.416C763.85 339.959 771.862 307.708 769.557 303.501C768.041 302.252 766.491 301.921 764.555 302.042C763.099 306.048 762.777 310.448 762.251 314.656C760.931 325.213 760.431 338.352 757.112 348.302C748.361 348.279 739.585 348.387 730.838 348.142C726.709 349.186 720.4 348.228 716.054 348.052C708.895 348.665 701.272 348.124 694.066 348.141C686.556 348.159 678.768 348.706 671.288 348.216C669.465 348.097 666.501 347.905 664.916 346.91C660.128 343.906 655.412 299.009 654.38 291.618Q684.084 291.578 713.786 291.905Z"/>
	<path fill="#76B995" d="M713.786 291.905C736.747 290.736 759.882 292.037 782.86 291.725Q779.383 307.005 776.083 322.325C774.685 329.146 773.823 336.769 771.519 343.306C770.983 344.829 770.398 345.909 768.986 346.804C767.597 347.684 766.113 347.853 764.515 347.969L763.846 347.416C763.85 339.959 771.862 307.708 769.557 303.501C768.041 302.252 766.491 301.921 764.555 302.042C764.476 298.747 764.881 295.323 765.109 292.033C748.133 291.91 730.705 293.099 713.786 291.905Z"/>
	<path fill="#16365F" d="M748.613 298.243C750.36 298.286 751.379 298.459 752.752 299.568C753.208 300.256 753.444 300.799 753.483 301.637C753.661 305.481 750.648 340.554 749.772 344.037C749.519 345.04 748.928 345.701 748.266 346.462C747.556 346.452 746.672 346.445 745.992 346.199C744.908 345.806 744.004 345.081 743.688 343.946C742.959 341.33 746.061 307.559 746.998 302.417C747.276 300.891 747.876 299.596 748.613 298.243Z"/>
	<path fill="#16365F" d="M730.143 302.811C730.447 301.485 730.492 300.155 731.742 299.319C732.897 298.546 733.531 298.765 734.73 299.103C735.552 299.999 736.089 300.748 736.326 301.968C737.511 308.051 736.684 331.735 736.398 339.166C736.295 341.847 736.357 344.123 734.434 346.192C733.062 346.711 732.069 346.84 730.628 346.916C727.861 341.382 730.522 311.846 730.143 302.811Z"/>
	<path fill="#16365F" d="M716.282 347.478C713.645 344.252 714.672 319.649 714.643 313.528C714.628 310.137 713.834 303.536 716.268 301.08C717.603 300.676 718.172 300.798 719.489 301.224C720.646 302.302 720.892 303.008 721.368 304.462Q721.148 317.794 721.19 331.127C721.178 335.139 721.728 340.37 720.868 344.248C720.647 345.248 720.362 345.704 719.699 346.452C718.533 346.936 717.536 347.247 716.282 347.478Z"/>
	<path fill="#16365F" d="M700.848 301.322C701.988 301.395 702.938 301.623 704.032 301.947C705.16 303.108 705.243 303.852 705.416 305.448C706.232 312.999 705.835 321.124 705.973 328.743C706.062 333.635 706.715 339.117 706.179 343.954C706.051 345.113 705.589 345.718 704.862 346.596C703.385 346.548 701.854 346.732 700.651 345.754C700.03 344.077 699.86 342.428 699.732 340.658C699.235 333.787 698.049 310.131 699.091 304.299C699.35 302.855 699.933 302.375 700.848 301.322Z"/>
	<path fill="#16365F" d="M685.068 301.253C686.082 301.578 686.805 301.994 687.687 302.586C689.12 305.154 691.908 340.689 691.37 344.444C691.144 346.024 690.146 346.407 688.981 347.27C687.49 347.05 686.566 347.151 685.424 346.134C684.145 339.168 684.159 331.649 683.679 324.574C683.217 317.769 682.373 310.944 682.22 304.129C682.725 302.63 683.821 302.085 685.068 301.253Z"/>
	<path fill="#16365F" d="M668.37 301.916C669.538 301.951 670.385 302.088 671.489 302.474C674.164 305.145 675.794 334.501 676.24 340.502C676.448 343.306 676.906 345.541 674.954 347.819C673.661 347.755 672.698 347.747 671.545 347.068C669.806 344.59 666.875 311.383 666.543 305.714C666.426 303.706 667.135 303.273 668.37 301.916Z"/>
	<path fill="#8EC7AB" d="M646.974 274.45C653.427 273.324 660.851 273.977 667.401 274.01L702.135 274.134L760.45 274.027C770.893 274.007 781.761 273.429 792.154 274.347C792.345 277.425 793.142 281.311 790.883 283.806C789.237 285.624 786.385 285.563 784.146 285.467C779.563 285.27 775.082 285.024 770.484 285.083L695.256 285.258C679.146 285.323 662.81 285.859 646.727 285.16C646.549 282.261 645.771 277.043 646.974 274.45Z"/>
	<path fill="#76B995" d="M646.974 274.45C653.427 273.324 660.851 273.977 667.401 274.01L702.135 274.134L760.45 274.027C770.893 274.007 781.761 273.429 792.154 274.347C792.345 277.425 793.142 281.311 790.883 283.806C789.237 285.624 786.385 285.563 784.146 285.467C779.563 285.27 775.082 285.024 770.484 285.083C770.47 281.528 770.338 278.091 769.906 274.562C729.009 273.302 687.865 276.026 646.974 274.45Z"/>
	<path fill="#8EC7AB" d="M747.561 225.319L756.078 225.338L764.151 225.448C764.692 239.429 764.398 253.53 764.323 267.524L755.693 267.495L747.471 267.497L725.923 267.467L725.997 225.414C733.174 225.232 740.381 225.343 747.561 225.319Z"/>
	<path fill="#76B995" d="M747.561 225.319L756.078 225.338L764.151 225.448C764.692 239.429 764.398 253.53 764.323 267.524L755.693 267.495L747.471 267.497L747.561 225.319Z"/>
	<path fill="#56A881" d="M756.078 225.338L764.151 225.448C764.692 239.429 764.398 253.53 764.323 267.524L755.693 267.495C757.355 256.985 756.17 236.719 756.078 225.338Z"/>
	<path fill="#8EC7AB" d="M673.494 224.773Q685.997 224.614 698.499 224.824L707.51 224.996L707.573 267.56L698.446 267.508C690.121 267.328 681.77 267.443 673.442 267.421L673.494 224.773Z"/>
	<path fill="#56A881" d="M698.499 224.824L707.51 224.996L707.573 267.56L698.446 267.508C698.715 253.296 698.495 239.041 698.499 224.824Z"/>
	<path fill="#8EC7AB" d="M752.4 204.514C758.581 204.519 764.813 204.38 770.986 204.67C771.012 209.355 771.107 214.051 771.003 218.735Q756.382 219.034 741.758 218.879C736.584 218.863 731.084 219.232 725.971 218.634L725.981 204.506L752.4 204.514Z"/>
	<path fill="#56A881" d="M752.4 204.514C758.581 204.519 764.813 204.38 770.986 204.67C771.012 209.355 771.107 214.051 771.003 218.735Q756.382 219.034 741.758 218.879C736.584 218.863 731.084 219.232 725.971 218.634C734.706 217.873 743.845 218.403 752.625 218.428C752.674 213.796 752.489 209.145 752.4 204.514Z"/>
	<path fill="#8EC7AB" d="M669.512 204.249L707.67 204.434C707.534 207.651 708.674 215.684 706.829 218.028C706.376 218.604 704.845 218.431 704.125 218.467L665.546 218.406C665.601 214.041 664.684 209.515 666.002 205.292C667.256 204.149 667.857 204.362 669.512 204.249Z"/>
	<path fill="#8EC7AB" d="M714.137 204.414C715.839 204.383 717.422 204.227 719.022 204.913C720.322 209.604 719.392 218.87 719.389 223.978L719.342 267.484C717.789 267.496 715.722 267.779 714.399 266.917C713.674 259.793 714.197 252.139 714.204 244.946L714.137 204.414Z"/>
	<path fill="#F9FBFB" d="M693.868 179.879C695.313 179.921 696.781 180.108 698.106 180.724C702.674 182.849 707.537 188.538 709.024 193.348C709.483 194.836 709.651 195.494 708.886 196.858C705.945 195.638 702.847 194.483 700.07 192.922C696.985 191.19 693.66 188.775 692.763 185.151C692.222 182.965 692.688 181.72 693.868 179.879Z"/>
	<path fill="#F9FBFB" d="M734.129 180.012C734.557 180.018 735.141 180.014 735.588 180.062C737.333 180.25 738.505 180.894 739.61 182.181C739.781 183.084 739.716 183.521 739.417 184.421C737.603 189.888 730.837 193.193 726.054 195.532L722.182 197.523C724.592 189.806 726.912 184.425 734.129 180.012Z"/>
	<path fill="#C3D8E7" d="M789.588 291.928C789.735 292.106 789.879 292.288 790.029 292.464C792.242 295.059 796.118 296.664 798.687 298.989C803.302 303.164 807.449 308.847 811.346 313.705C820.721 325.388 828.433 337.932 835.85 350.908Q839.864 357.775 843.588 364.804Q847.311 371.832 850.737 379.011Q854.163 386.189 857.286 393.505Q860.408 400.82 863.222 408.26Q866.036 415.699 868.537 423.25Q871.037 430.801 873.219 438.45Q875.401 446.099 877.262 453.832Q879.122 461.566 880.657 469.37Q883.331 482.396 885.06 495.58Q886.79 508.765 887.565 522.04C887.786 526 887.6 552.32 888.064 553.959C888.357 554.998 890.779 555.106 891.794 555.329C886.89 555.437 881.941 555.224 877.035 555.157L871.334 555.12Q871.429 551.666 871.46 548.21Q871.491 544.755 871.459 541.299Q871.427 537.844 871.331 534.389Q871.235 530.935 871.075 527.483Q870.916 524.031 870.693 520.582Q870.47 517.134 870.183 513.69Q869.897 510.246 869.547 506.808Q869.197 503.37 868.784 499.94Q868.371 496.509 867.895 493.086Q867.419 489.663 866.88 486.25Q866.341 482.836 865.739 479.434Q865.137 476.031 864.473 472.639Q863.809 469.248 863.082 465.87Q862.355 462.491 861.567 459.127Q860.778 455.762 859.928 452.413Q859.077 449.064 858.165 445.73Q857.253 442.397 856.28 439.082Q855.307 435.766 854.273 432.468Q853.239 429.171 852.144 425.893Q851.049 422.616 849.895 419.358Q848.74 416.101 847.526 412.866Q846.311 409.631 845.037 406.419Q843.764 403.206 842.431 400.018Q841.098 396.83 839.707 393.666Q838.316 390.503 836.866 387.366Q835.417 384.229 833.911 381.119Q832.404 378.009 830.84 374.927Q829.277 371.846 827.656 368.793Q826.036 365.741 824.36 362.719Q822.684 359.697 820.953 356.706Q819.222 353.715 817.435 350.757Q815.649 347.799 813.809 344.874C810.364 339.383 786.295 308.797 786.088 307.066L787.106 302.799C788.085 299.212 788.817 295.563 789.588 291.928Z"/>
	<path fill="#DCE6EC" d="M787.106 302.799C790.451 304.015 793.132 307.962 795.446 310.591C813.831 331.484 831.745 362.883 843.467 387.995C849.551 401.026 854.14 414.6 858.418 428.314C872.113 472.219 877.128 509.402 877.035 555.157L871.334 555.12Q871.429 551.666 871.46 548.21Q871.491 544.755 871.459 541.299Q871.427 537.844 871.331 534.389Q871.235 530.935 871.075 527.483Q870.916 524.031 870.693 520.582Q870.47 517.134 870.183 513.69Q869.897 510.246 869.547 506.808Q869.197 503.37 868.784 499.94Q868.371 496.509 867.895 493.086Q867.419 489.663 866.88 486.25Q866.341 482.836 865.739 479.434Q865.137 476.031 864.473 472.639Q863.809 469.248 863.082 465.87Q862.355 462.491 861.567 459.127Q860.778 455.762 859.928 452.413Q859.077 449.064 858.165 445.73Q857.253 442.397 856.28 439.082Q855.307 435.766 854.273 432.468Q853.239 429.171 852.144 425.893Q851.049 422.616 849.895 419.358Q848.74 416.101 847.526 412.866Q846.311 409.631 845.037 406.419Q843.764 403.206 842.431 400.018Q841.098 396.83 839.707 393.666Q838.316 390.503 836.866 387.366Q835.417 384.229 833.911 381.119Q832.404 378.009 830.84 374.927Q829.277 371.846 827.656 368.793Q826.036 365.741 824.36 362.719Q822.684 359.697 820.953 356.706Q819.222 353.715 817.435 350.757Q815.649 347.799 813.809 344.874C810.364 339.383 786.295 308.797 786.088 307.066L787.106 302.799Z"/>
	<path fill="#DCE6EC" d="M738.186 356.173L750.866 356.17C750.965 356.351 751.062 356.534 751.164 356.714C756.742 366.574 767.608 378.455 774.295 388.536Q777.272 393.073 780.052 397.734Q782.832 402.394 785.41 407.17Q787.989 411.945 790.36 416.826Q792.732 421.707 794.892 426.685Q797.053 431.663 798.999 436.729Q800.945 441.795 802.672 446.939Q804.399 452.083 805.905 457.297Q807.411 462.511 808.692 467.784C810.08 473.262 812.276 479.686 812.13 485.341C809.632 484.8 807.112 484.34 804.603 483.848Q803.959 480.393 803.216 476.959Q802.474 473.524 801.633 470.112Q800.793 466.699 799.855 463.313Q798.918 459.926 797.884 456.567Q796.85 453.209 795.72 449.881Q794.59 446.553 793.366 443.259Q792.141 439.965 790.823 436.708Q789.505 433.45 788.095 430.232Q786.684 427.013 785.182 423.836Q783.68 420.659 782.088 417.526Q780.496 414.394 778.814 411.308Q777.133 408.222 775.365 405.185Q773.596 402.148 771.741 399.164Q769.886 396.179 767.947 393.248Q766.008 390.318 763.985 387.444Q761.963 384.57 759.859 381.755C753.131 372.807 745.662 364.493 738.186 356.173Z"/>
	<path fill="#DCE6EC" d="M666.78 228.287C655.835 226.523 645.756 221.073 635.487 217.064Q617.705 210.051 599.201 205.259C589.827 202.841 580.111 200.97 570.584 199.242C565.105 198.249 554.659 198.41 550.094 195.76C549.534 194.972 548.843 194.186 548.738 193.195C548.673 192.578 549.085 192.292 549.428 191.831C553.386 190.184 559.52 191.841 563.724 192.378C588.216 195.508 613.567 202.511 636.608 211.335C644.318 214.288 651.688 217.961 659.351 220.971C662.145 224.336 667.346 223.447 666.863 227.708C666.841 227.902 666.808 228.094 666.78 228.287Z"/>
	<path fill="#DCE6EC" d="M666.497 251.121C663.961 251.089 652.187 244.523 648.848 243.096C633.073 236.354 617.555 230.177 600.903 225.906C596.051 224.662 578.132 221.853 575.358 219.553C575.126 218.23 575.216 217.377 575.44 216.079L576.316 215.491C580.893 215.058 586.446 217.072 590.975 218.057C610.024 222.196 627.713 227.935 645.597 235.737C652.305 238.664 658.801 242.837 665.598 245.339L666.513 245.667L666.497 251.121Z"/>
	<path fill="#F9FBFB" d="M731.545 395.879C733.531 395.997 734.454 395.852 735.574 397.783C740.954 407.058 740.133 414.752 750.556 420.821C754.232 422.961 758.622 424.211 762.082 426.626C763.436 427.571 764.36 428.503 764.646 430.173C764.088 431.273 764.469 430.886 763.409 431.52C759.831 433.66 755.421 434.189 751.768 436.407C739.536 443.837 740.843 451.453 733.804 461.329C728.752 460.936 725.348 447.237 722.22 443.21C717.736 437.438 710.294 434.891 703.905 431.916C702.821 431.411 701.193 430.719 700.776 429.563C702.728 425.241 714.481 421.652 718.601 417.935C726.739 410.59 725.98 403.006 731.545 395.879Z"/>
	<path fill="#C3D8E7" d="M732.897 408.812C734.29 410.05 735.291 412.687 736.213 414.323C739.972 420.993 744.588 424.568 750.958 428.58C742.594 434.058 737.901 438.322 732.954 447.079L732.205 447.166C728.169 439.143 722.321 433.967 715.176 428.723C723.491 423.046 727.843 417.423 732.897 408.812Z"/>
	<path fill="#F9FBFB" d="M549.668 277.448Q550.172 277.36 550.679 277.296Q551.187 277.233 551.697 277.194Q552.207 277.156 552.718 277.143Q553.23 277.129 553.741 277.141Q554.252 277.153 554.763 277.19Q555.273 277.227 555.78 277.289Q556.288 277.351 556.792 277.438Q557.296 277.524 557.795 277.636Q558.295 277.747 558.788 277.883Q559.281 278.019 559.767 278.179Q560.253 278.339 560.73 278.523Q561.207 278.707 561.675 278.914Q562.143 279.121 562.6 279.35Q563.057 279.58 563.502 279.832Q563.947 280.084 564.379 280.357Q564.812 280.63 565.23 280.925Q565.648 281.219 566.052 281.534Q566.455 281.848 566.842 282.182Q567.23 282.516 567.6 282.869Q567.971 283.222 568.323 283.592Q568.676 283.962 569.01 284.35Q569.344 284.737 569.659 285.14Q569.974 285.544 570.268 285.962Q570.563 286.38 570.836 286.812Q571.11 287.245 571.362 287.69Q571.614 288.135 571.843 288.592Q572.073 289.049 572.28 289.517Q572.487 289.984 572.671 290.462Q572.855 290.939 573.015 291.425Q573.175 291.911 573.311 292.404Q573.447 292.897 573.558 293.396Q573.67 293.895 573.757 294.399Q573.844 294.903 573.906 295.411Q573.968 295.918 574.005 296.429Q574.042 296.939 574.054 297.45Q574.066 297.961 574.053 298.473Q574.04 298.984 574.001 299.494Q573.963 300.004 573.9 300.512Q573.836 301.019 573.748 301.523Q573.66 302.027 573.547 302.526Q573.434 303.025 573.297 303.517Q573.159 304.01 572.998 304.495Q572.837 304.981 572.652 305.458Q572.467 305.935 572.258 306.402Q572.05 306.869 571.819 307.325Q571.588 307.782 571.335 308.226Q571.082 308.671 570.808 309.102Q570.533 309.534 570.237 309.951Q569.942 310.369 569.626 310.771Q569.311 311.174 568.976 311.56Q568.641 311.946 568.287 312.316Q567.933 312.686 567.562 313.037Q567.19 313.389 566.802 313.722Q566.414 314.055 566.01 314.368Q565.606 314.682 565.187 314.975Q564.768 315.269 564.335 315.541Q563.902 315.813 563.456 316.064Q563.01 316.315 562.552 316.543Q562.095 316.772 561.627 316.977Q561.158 317.183 560.68 317.366Q560.203 317.548 559.716 317.707Q559.23 317.866 558.737 318Q558.243 318.135 557.744 318.245Q557.244 318.355 556.74 318.441Q556.237 318.526 555.731 318.587Q555.225 318.647 554.717 318.683Q554.208 318.719 553.699 318.729Q553.189 318.74 552.68 318.726Q552.17 318.712 551.662 318.673Q551.154 318.633 550.648 318.569Q550.142 318.505 549.641 318.417Q549.139 318.328 548.642 318.215Q548.145 318.102 547.654 317.964Q547.163 317.827 546.68 317.665Q546.196 317.504 545.721 317.319Q545.246 317.135 544.781 316.927Q544.315 316.719 543.861 316.489Q543.406 316.258 542.963 316.006Q542.52 315.754 542.09 315.48Q541.66 315.206 541.244 314.912Q540.828 314.617 540.427 314.303Q540.026 313.988 539.641 313.655Q539.256 313.321 538.887 312.969Q538.519 312.616 538.168 312.247Q537.817 311.877 537.485 311.49Q537.153 311.103 536.84 310.701Q536.527 310.299 536.234 309.882Q535.942 309.464 535.67 309.033Q535.398 308.602 535.147 308.158Q534.897 307.714 534.668 307.259Q534.44 306.803 534.234 306.337Q534.028 305.871 533.845 305.395Q533.662 304.919 533.503 304.435Q533.344 303.951 533.208 303.459Q533.073 302.968 532.962 302.471Q532.851 301.973 532.764 301.471Q532.677 300.969 532.615 300.463Q532.553 299.957 532.516 299.448Q532.479 298.94 532.467 298.431Q532.455 297.921 532.468 297.411Q532.481 296.902 532.518 296.394Q532.556 295.885 532.619 295.38Q532.681 294.874 532.769 294.372Q532.856 293.869 532.968 293.372Q533.08 292.875 533.216 292.384Q533.352 291.892 533.512 291.408Q533.672 290.924 533.855 290.449Q534.038 289.973 534.245 289.507Q534.452 289.041 534.681 288.586Q534.91 288.131 535.161 287.687Q535.412 287.244 535.685 286.813Q535.957 286.382 536.25 285.965Q536.544 285.549 536.857 285.147Q537.17 284.745 537.503 284.358Q537.836 283.972 538.187 283.603Q538.538 283.233 538.907 282.882Q539.276 282.53 539.662 282.197Q540.047 281.863 540.449 281.549Q540.85 281.236 541.267 280.942Q541.683 280.648 542.114 280.375Q542.544 280.101 542.987 279.85Q543.43 279.598 543.885 279.368Q544.34 279.138 544.806 278.931Q545.272 278.724 545.747 278.54Q546.222 278.356 546.706 278.195Q547.19 278.035 547.681 277.898Q548.172 277.761 548.669 277.649Q549.166 277.536 549.668 277.448Z"/>
	<path fill="#C3D8E7" d="M549.682 284.855Q549.998 284.775 550.318 284.71Q550.638 284.645 550.961 284.596Q551.283 284.548 551.608 284.514Q551.933 284.481 552.258 284.464Q552.584 284.447 552.911 284.446Q553.237 284.445 553.563 284.46Q553.889 284.475 554.214 284.506Q554.539 284.537 554.862 284.584Q555.185 284.63 555.505 284.693Q555.825 284.755 556.142 284.834Q556.459 284.912 556.772 285.005Q557.084 285.099 557.392 285.208Q557.699 285.317 558.001 285.44Q558.303 285.564 558.599 285.703Q558.894 285.841 559.183 285.994Q559.471 286.147 559.752 286.313Q560.032 286.48 560.304 286.66Q560.576 286.841 560.839 287.034Q561.102 287.227 561.355 287.433Q561.608 287.639 561.851 287.858Q562.093 288.076 562.325 288.306Q562.557 288.536 562.777 288.776Q562.997 289.017 563.205 289.269Q563.413 289.52 563.608 289.782Q563.804 290.043 563.986 290.313Q564.169 290.584 564.338 290.863Q564.507 291.142 564.662 291.43Q564.817 291.717 564.957 292.011Q565.098 292.306 565.224 292.607Q565.351 292.908 565.462 293.214Q565.573 293.521 565.669 293.833Q565.765 294.145 565.846 294.461Q565.927 294.777 565.992 295.097Q566.057 295.417 566.106 295.739Q566.156 296.062 566.189 296.387Q566.223 296.711 566.24 297.037Q566.258 297.363 566.259 297.689Q566.261 298.016 566.246 298.342Q566.232 298.668 566.201 298.992Q566.171 299.317 566.125 299.64Q566.078 299.963 566.016 300.284Q565.954 300.604 565.876 300.921Q565.798 301.238 565.705 301.551Q565.612 301.863 565.504 302.171Q565.395 302.479 565.272 302.781Q565.148 303.083 565.01 303.379Q564.872 303.675 564.72 303.963Q564.568 304.252 564.401 304.533Q564.235 304.813 564.055 305.086Q563.875 305.358 563.682 305.621Q563.489 305.884 563.283 306.137Q563.078 306.391 562.86 306.634Q562.642 306.877 562.412 307.109Q562.183 307.341 561.942 307.561Q561.702 307.782 561.451 307.99Q561.199 308.198 560.938 308.394Q560.677 308.59 560.407 308.773Q560.137 308.956 559.858 309.125Q559.579 309.294 559.292 309.45Q559.005 309.605 558.711 309.746Q558.416 309.887 558.116 310.014Q557.815 310.141 557.508 310.252Q557.202 310.364 556.89 310.46Q556.578 310.557 556.262 310.638Q555.945 310.719 555.625 310.785Q555.305 310.85 554.982 310.9Q554.659 310.95 554.334 310.984Q554.009 311.018 553.682 311.036Q553.356 311.053 553.029 311.055Q552.702 311.057 552.375 311.043Q552.049 311.029 551.723 310.998Q551.398 310.968 551.074 310.922Q550.751 310.876 550.43 310.814Q550.109 310.752 549.791 310.674Q549.474 310.596 549.161 310.503Q548.847 310.41 548.539 310.301Q548.231 310.193 547.928 310.069Q547.625 309.946 547.329 309.807Q547.033 309.669 546.744 309.517Q546.455 309.364 546.174 309.197Q545.892 309.031 545.62 308.851Q545.347 308.67 545.083 308.477Q544.82 308.284 544.566 308.077Q544.312 307.871 544.069 307.653Q543.826 307.435 543.594 307.205Q543.361 306.975 543.141 306.733Q542.92 306.492 542.711 306.241Q542.503 305.989 542.307 305.727Q542.111 305.466 541.928 305.195Q541.745 304.924 541.576 304.644Q541.406 304.365 541.251 304.077Q541.096 303.79 540.954 303.495Q540.813 303.2 540.687 302.898Q540.56 302.597 540.449 302.29Q540.337 301.982 540.241 301.67Q540.145 301.358 540.064 301.041Q539.983 300.724 539.918 300.404Q539.853 300.084 539.803 299.76Q539.754 299.437 539.721 299.112Q539.687 298.787 539.67 298.461Q539.652 298.134 539.651 297.807Q539.649 297.48 539.664 297.154Q539.679 296.827 539.709 296.502Q539.74 296.176 539.787 295.853Q539.833 295.529 539.896 295.208Q539.958 294.888 540.036 294.57Q540.115 294.253 540.208 293.94Q540.302 293.626 540.411 293.318Q540.52 293.01 540.644 292.707Q540.767 292.405 540.906 292.109Q541.045 291.813 541.198 291.524Q541.351 291.235 541.518 290.954Q541.685 290.673 541.865 290.401Q542.046 290.128 542.24 289.865Q542.433 289.602 542.64 289.348Q542.846 289.095 543.065 288.852Q543.283 288.609 543.514 288.377Q543.744 288.145 543.985 287.924Q544.227 287.704 544.479 287.496Q544.731 287.287 544.993 287.092Q545.255 286.896 545.526 286.714Q545.797 286.531 546.077 286.362Q546.357 286.193 546.644 286.038Q546.932 285.883 547.227 285.742Q547.522 285.602 547.824 285.475Q548.125 285.349 548.433 285.238Q548.74 285.127 549.053 285.031Q549.365 284.935 549.682 284.855Z"/>
	<path fill="#DCE6EC" d="M958.437 830.797C964.348 831.641 983.859 835.702 986.979 840.833C987.766 842.127 987.636 842.563 987.444 843.99C983.612 849.965 971.681 852.218 965.213 853.64C925.546 862.36 882.269 865.864 841.752 868.663C828.861 869.553 815.863 871.098 802.965 871.489C791.06 871.496 778.898 872.648 766.98 873.206L699.775 875.912Q604.775 879.081 509.729 877.975Q397.28 876.726 285.266 866.756Q257.606 864.039 230.04 860.485C220.222 859.249 210.386 857.749 200.53 856.908L195.994 855.477C186.425 853.237 176.445 851.57 167.405 847.642L169.566 846.949Q178.156 846.827 186.747 846.837L711.208 846.383L874.224 846.124L922.046 846.062C931.302 846.117 940.7 846.616 949.943 846.257C952.616 846.154 956.664 845.648 958.374 843.269C960.154 840.792 958.752 833.882 958.437 830.797Z"/>
	<path fill="#C3D8E7" d="M318.622 215.555C319.952 243.127 328.058 267.534 349.003 286.659C352.23 289.605 355.701 292.345 359.154 295.022C362.105 296.953 365.041 298.912 368.013 300.81C351.586 316.455 336.305 332.077 322.004 349.71C318.655 353.839 314.538 358.083 311.728 362.58L299.865 362.592L212.417 362.86C198.292 362.891 183.804 363.572 169.711 362.893C173.941 361.757 179.325 362.31 183.697 362.284C187.435 352.976 193.531 344.332 198.824 335.837C226.066 292.112 257.655 258.725 299.446 228.69C305.694 224.199 311.657 218.909 318.622 215.555Z"/>
	<path fill="#DCE6EC" d="M359.154 295.022C362.105 296.953 365.041 298.912 368.013 300.81C351.586 316.455 336.305 332.077 322.004 349.71C318.655 353.839 314.538 358.083 311.728 362.58L299.865 362.592C301.389 355.832 333.251 321.456 340.366 314.288C346.373 308.234 354.639 302.175 359.154 295.022Z"/>
	<path fill="#F9FBFB" d="M263.453 306.884Q263.931 306.808 264.413 306.756Q264.894 306.704 265.378 306.675Q265.861 306.647 266.345 306.642Q266.829 306.637 267.313 306.656Q267.797 306.675 268.28 306.717Q268.762 306.76 269.242 306.826Q269.721 306.892 270.197 306.982Q270.673 307.071 271.144 307.184Q271.615 307.297 272.08 307.432Q272.545 307.568 273.002 307.726Q273.46 307.884 273.909 308.065Q274.359 308.245 274.799 308.447Q275.239 308.65 275.668 308.873Q276.098 309.097 276.516 309.341Q276.934 309.585 277.34 309.85Q277.745 310.114 278.138 310.398Q278.53 310.682 278.908 310.985Q279.285 311.288 279.648 311.609Q280.011 311.93 280.357 312.269Q280.703 312.607 281.033 312.962Q281.362 313.317 281.674 313.688Q281.985 314.058 282.278 314.444Q282.572 314.829 282.845 315.229Q283.119 315.628 283.373 316.04Q283.627 316.453 283.861 316.877Q284.094 317.301 284.307 317.736Q284.519 318.171 284.71 318.616Q284.901 319.061 285.07 319.515Q285.238 319.969 285.385 320.431Q285.531 320.892 285.655 321.36Q285.779 321.829 285.879 322.302Q285.98 322.776 286.057 323.254Q286.134 323.732 286.188 324.213Q286.242 324.695 286.272 325.178Q286.302 325.661 286.309 326.145Q286.315 326.63 286.298 327.114Q286.28 327.598 286.239 328.08Q286.198 328.563 286.134 329.042Q286.069 329.522 285.981 329.999Q285.893 330.475 285.782 330.946Q285.671 331.417 285.537 331.883Q285.403 332.348 285.246 332.806Q285.089 333.264 284.91 333.714Q284.731 334.164 284.53 334.605Q284.33 335.046 284.107 335.476Q283.885 335.906 283.642 336.325Q283.399 336.744 283.136 337.15Q282.873 337.557 282.59 337.95Q282.307 338.343 282.006 338.722Q281.704 339.101 281.384 339.464Q281.064 339.828 280.727 340.175Q280.39 340.523 280.036 340.853Q279.682 341.184 279.312 341.497Q278.943 341.81 278.558 342.104Q278.174 342.398 277.775 342.673Q277.377 342.949 276.965 343.204Q276.554 343.459 276.13 343.694Q275.707 343.929 275.272 344.143Q274.838 344.357 274.393 344.549Q273.949 344.741 273.496 344.912Q273.042 345.082 272.581 345.23Q272.12 345.378 271.652 345.503Q271.185 345.628 270.711 345.73Q270.238 345.832 269.76 345.911Q269.28 345.99 268.797 346.046Q268.314 346.101 267.829 346.133Q267.344 346.164 266.857 346.172Q266.371 346.18 265.885 346.163Q265.399 346.147 264.915 346.107Q264.43 346.067 263.948 346.003Q263.466 345.939 262.988 345.852Q262.509 345.764 262.036 345.654Q261.563 345.543 261.095 345.409Q260.628 345.275 260.168 345.118Q259.707 344.961 259.255 344.782Q258.803 344.602 258.361 344.401Q257.918 344.2 257.486 343.977Q257.054 343.754 256.633 343.51Q256.212 343.267 255.804 343.002Q255.396 342.738 255.001 342.454Q254.606 342.17 254.226 341.867Q253.846 341.564 253.481 341.243Q253.116 340.922 252.767 340.583Q252.418 340.244 252.087 339.888Q251.755 339.533 251.442 339.161Q251.128 338.79 250.833 338.403Q250.538 338.017 250.262 337.616Q249.986 337.216 249.73 336.802Q249.475 336.388 249.24 335.963Q249.005 335.537 248.791 335.1Q248.577 334.664 248.385 334.217Q248.193 333.77 248.023 333.315Q247.853 332.859 247.706 332.396Q247.558 331.932 247.434 331.462Q247.31 330.992 247.209 330.517Q247.108 330.041 247.03 329.561Q246.952 329.081 246.899 328.598Q246.845 328.114 246.815 327.629Q246.785 327.144 246.778 326.658Q246.772 326.172 246.79 325.686Q246.808 325.2 246.849 324.715Q246.891 324.231 246.956 323.749Q247.022 323.267 247.111 322.789Q247.2 322.311 247.312 321.838Q247.425 321.365 247.56 320.898Q247.696 320.431 247.854 319.971Q248.012 319.511 248.193 319.06Q248.374 318.609 248.577 318.167Q248.779 317.725 249.004 317.293Q249.228 316.862 249.473 316.442Q249.718 316.022 249.984 315.615Q250.249 315.207 250.534 314.813Q250.819 314.42 251.124 314.04Q251.428 313.661 251.75 313.297Q252.073 312.933 252.413 312.586Q252.753 312.238 253.11 311.908Q253.466 311.577 253.839 311.265Q254.211 310.952 254.599 310.658Q254.986 310.364 255.388 310.09Q255.789 309.816 256.203 309.561Q256.618 309.307 257.044 309.073Q257.471 308.839 257.908 308.627Q258.345 308.415 258.793 308.224Q259.24 308.033 259.696 307.865Q260.152 307.696 260.616 307.551Q261.08 307.405 261.55 307.282Q262.021 307.159 262.497 307.06Q262.973 306.96 263.453 306.884Z"/>
	<path fill="#C3D8E7" d="M264.072 313.576C266.156 313.537 268.227 313.546 270.243 314.138C273.948 315.225 277.219 317.494 278.933 321.028Q279.181 321.532 279.377 322.058Q279.573 322.585 279.714 323.129Q279.855 323.673 279.94 324.228Q280.025 324.783 280.053 325.344Q280.081 325.905 280.051 326.466Q280.022 327.027 279.935 327.582Q279.849 328.137 279.706 328.681Q279.563 329.224 279.366 329.75C277.589 334.607 273.774 337.236 269.299 339.299C266.647 339.694 264.138 339.759 261.594 338.775Q260.972 338.542 260.378 338.246Q259.783 337.95 259.221 337.595Q258.66 337.241 258.138 336.83Q257.616 336.42 257.138 335.959Q256.66 335.497 256.232 334.99Q255.804 334.482 255.43 333.933Q255.056 333.384 254.74 332.8Q254.424 332.216 254.169 331.603C252.82 328.408 252.827 324.851 254.293 321.696C256.298 317.378 259.776 315.218 264.072 313.576Z"/>
	<path fill="#C3D8E7" d="M208.815 757.973C221.149 757.969 233.547 757.695 245.874 757.984L252.681 758.008C263.707 772.086 282.131 787.565 296.569 797.899C302.988 802.494 309.885 806.481 316.057 811.406L314.425 814.498C303.265 814.588 292.98 813.654 284.389 822.357C283.021 823.743 281.886 825.266 280.866 826.919C257.919 811.396 237.101 793.366 219.399 772.038C215.78 767.677 211.536 762.966 208.815 757.973Z"/>
	<path fill="#DCE6EC" d="M245.874 757.984L252.681 758.008C263.707 772.086 282.131 787.565 296.569 797.899C302.988 802.494 309.885 806.481 316.057 811.406L314.425 814.498C312.591 811.974 301.906 807.408 298.573 805.163C283.773 795.196 255.551 772.283 245.874 757.984Z"/>
	<path fill="#C3D8E7" d="M252.681 758.008Q279.083 757.913 305.485 758.102C316.908 758.276 330.617 759.351 341.794 758.179C338.286 763.687 335.843 769.354 333.447 775.413L331.774 778.99Q324.185 795.328 316.057 811.406C309.885 806.481 302.988 802.494 296.569 797.899C282.131 787.565 263.707 772.086 252.681 758.008Z"/>
	<path fill="#DCE6EC" d="M306.577 758.707L312.158 758.694C319.08 764.153 325.86 770.966 333.447 775.413L331.774 778.99C325.035 777.458 311.792 764.16 306.577 758.707Z"/>
	<path fill="#F9FBFB" d="M153.545 405.988L624.952 406.098C624.238 455.833 624.636 505.666 624.626 555.412C622.929 555.523 620.661 555.633 619.213 556.616C617.848 557.543 617.181 559.289 616.865 560.84C614.356 573.174 613.247 588.93 611.679 601.758Q606.814 638.633 602.892 675.62C602.382 682.169 601.558 688.717 600.859 695.25C586.262 695.417 571.631 695.113 557.029 695.098L456.307 695.044L153.75 695.239C153.361 664.626 153.779 633.963 153.78 603.345L153.545 405.988Z"/>
	<path fill="#16365F" d="M214.62 428.435C216.144 428.657 217.835 429.074 218.976 430.188C220.21 431.394 220.721 433.238 220.852 434.91C221.361 441.419 220.669 448.372 220.674 454.95L220.558 507.103L220.945 651.064L445.285 651.126L542.249 651.176C554.896 651.181 567.711 650.629 580.324 650.905Q580.879 650.917 581.429 650.999Q581.978 651.081 582.513 651.233Q583.047 651.385 583.558 651.604Q584.068 651.823 584.547 652.105C586.066 653.008 587.487 654.64 587.817 656.417C588.054 657.691 587.872 658.864 587.061 659.884C586.167 661.01 585.006 661.44 583.625 661.619L321.281 661.704L250.771 661.914C240.214 661.941 226.902 662.91 216.619 661.663C214.763 661.438 212.165 661.232 211.064 659.52C210.04 657.927 210.058 654.504 210.02 652.605C209.604 631.729 209.999 610.76 209.97 589.877Q209.468 532.675 209.937 475.474C209.969 468.338 208.898 436.827 210.169 432.16C210.675 430.305 213.094 429.264 214.62 428.435Z"/>
	<path fill="#16365F" d="M563.392 426.572C570.044 426.457 580.399 425.267 586.589 426.915C587.417 427.641 587.626 428.526 587.888 429.562C589.066 434.219 589.721 451.599 587.066 455.436C586.33 456.5 585.48 457.326 584.137 457.495C582.821 457.661 581.214 457.103 580.22 456.242C577.419 453.816 577.772 448.608 577.719 445.247Q577.119 446.031 576.49 446.793C564.577 461.315 549.468 473.913 536.109 487.145C524.285 498.857 512.975 512.172 500.414 522.99C498.824 524.36 497.309 525.615 495.114 525.733C493.901 525.799 493.089 525.261 492.167 524.522C486.761 520.187 482.02 514.366 477.12 509.424C463.582 495.771 450.235 481.38 436.016 468.453C421.362 484.207 405.838 499.177 390.705 514.463C383.37 521.872 376.499 530.322 368.622 537.107C367.105 538.414 365.387 539.748 363.293 539.82C361.64 539.876 360.37 538.831 359.157 537.856C354.651 534.236 350.606 529.409 346.493 525.306L317.593 496.437C302.31 512.508 286.333 527.828 270.572 543.426C260.995 552.904 251.694 562.661 242.145 572.169C239.653 574.653 234.864 580.612 231.457 581.292C230.436 581.495 229.393 581.114 228.531 580.552C227.255 579.72 226.294 578.632 226.119 577.054C225.859 574.714 227.263 572.457 228.648 570.702C232.412 565.931 237.526 561.721 241.869 557.418L264.277 534.862L295.107 504.101C301.18 497.939 306.917 491.299 313.329 485.497C314.513 484.426 315.673 483.388 317.344 483.325C318.723 483.273 319.824 483.58 320.946 484.363C325.937 487.846 330.506 493.645 334.768 498.004C344.262 507.715 353.707 517.433 363.468 526.878L409.936 479.274C416.952 472.1 424.762 463.004 432.48 456.817C433.652 455.877 434.543 455.264 436.093 455.241C437.278 455.223 438.565 455.374 439.586 456.002C443.549 458.443 450.201 466.794 453.906 470.566L495.355 512.384Q524.435 484.233 552.663 455.228C558.592 449.243 564.833 443.584 570.657 437.492C567.081 437.23 563.37 437.251 560.51 434.734C559.633 433.963 559.131 432.981 559.196 431.79C559.314 429.614 561.779 427.697 563.392 426.572Z"/>
	<path fill="#D95C65" d="M549.869 480.235Q562.646 479.526 575.437 479.907C576.052 486.975 575.739 494.329 575.763 501.427L575.64 544.249L575.586 606.579C575.56 616.46 575.817 626.437 575.455 636.309C575.398 637.871 575.278 638.969 574.577 640.37C566.419 641.11 557.747 640.813 549.566 640.43Q549.447 638.716 549.412 636.999L549.009 536.384L548.938 500.22C548.925 494.669 548.61 489.012 548.831 483.475C548.887 482.068 548.878 481.261 549.869 480.235Z"/>
	<path fill="#529995" d="M420.064 495.518C428.556 495.299 437.09 495.504 445.586 495.542C445.991 512.422 445.627 529.388 445.573 546.273L445.127 640.011C436.994 640.449 428.587 640.126 420.44 639.924C420.055 631.498 420.359 622.945 420.368 614.507L420.395 566.827C420.374 543.133 419.245 519.174 420.064 495.518Z"/>
	<path fill="#E68A7E" d="M290.194 529.589C298.342 528.704 307.193 529.486 315.359 530.117C315.702 554.15 315.467 578.213 315.459 602.249L315.447 625.765C315.445 629.539 315.746 633.694 315.268 637.425C315.119 638.594 314.749 639.326 313.98 640.197C307.87 640.114 295.332 641.401 290.204 639.156C288.025 632.993 289.351 593.365 289.346 584.209C289.337 567.346 288.601 550.216 289.446 533.38C289.516 531.982 289.709 530.893 290.194 529.589Z"/>
	<path fill="#E68A7E" d="M507.595 526.548C513.908 526.49 526.101 525.221 531.596 527.363C531.657 527.513 531.729 527.658 531.778 527.813C533.198 532.33 532.102 571.416 532.094 579.102C532.074 597.835 532.801 616.841 532.057 635.534C531.986 637.316 531.776 638.837 531.01 640.475C527.057 640.652 510.191 641.338 507.624 640.065C505.902 631.559 506.682 622.155 506.71 613.501L506.871 574.237L507.013 545.043C507.051 538.949 506.73 532.58 507.595 526.548Z"/>
	<path fill="#C3D8E7" d="M467.413 532.699C474.395 532.331 481.499 532.501 488.482 532.804C488.572 540.567 488.624 637.089 487.952 638.5C487.347 639.771 486.599 639.83 485.379 640.204C479.983 640.421 473.577 641.439 468.266 640.698C466.727 640.483 465.527 639.801 464.721 638.457C463.98 637.221 463.846 635.248 463.799 633.857C463.108 613.356 463.749 592.652 463.648 572.131C463.605 563.544 462.489 540.852 463.985 533.843C465.09 532.858 465.972 532.933 467.413 532.699Z"/>
	<path fill="#76B995" d="M377.572 547.121C382.607 546.809 397.272 545.97 401.211 548.551C403.055 553.835 401.897 589.159 401.899 597.052C401.901 611.318 402.451 625.684 401.913 639.935C393.852 640.384 385.618 640.146 377.54 640.019C376.834 627.417 377.455 614.513 377.396 601.862C377.31 583.674 376.676 565.28 377.572 547.121Z"/>
	<path fill="#FAC972" d="M335.453 551.267Q346.475 550.98 357.5 551.038L357.62 612.735C357.627 620.071 358.496 632.35 357.415 639.015C356.555 640.2 356.556 640.149 355.125 640.492C350.173 640.524 337.259 641.684 333.34 639.391C333.173 638.797 333.086 638.545 332.977 637.973C331.509 630.239 332.499 609.869 332.503 601.09L332.548 567.346C332.556 563.317 332.201 559.193 332.393 555.181C332.449 554.013 332.586 552.887 333.335 551.948C333.868 551.281 334.664 551.392 335.453 551.267Z"/>
	<path fill="#D95C65" d="M264.105 581.243C265.517 581.206 267.452 581.03 268.793 581.532C269.469 581.785 270.134 582.272 270.423 582.942C271.624 585.729 271.544 635.422 270.424 639.094C267.019 641.721 256.813 640.499 252.375 640.441C250.892 640.462 248.836 640.631 247.471 639.941C246.058 639.226 245.715 637.9 245.528 636.457C244.389 627.678 245.407 617.752 245.456 608.862C245.497 601.384 244.827 593.511 245.511 586.084C245.655 584.527 245.693 583.692 246.631 582.461C251.411 580.303 258.892 581.232 264.105 581.243Z"/>
	<path fill="#16365F" d="M181.631 482.681C186.013 482.633 190.742 481.962 195.078 482.58C196.931 482.844 198.915 483.444 199.924 485.166C200.606 486.331 200.7 487.732 200.333 489.011C199.756 491.023 198.607 492.017 196.863 493.04C192.198 493.124 185.668 494.056 181.206 492.621C179.824 492.177 178.388 491.31 177.837 489.895C177.294 488.501 177.649 486.505 178.265 485.185C178.973 483.664 180.18 483.226 181.631 482.681Z"/>
	<path fill="#16365F" d="M179.948 571.557C184.547 570.96 193.541 570.223 197.717 572.077C198.904 572.604 199.941 573.442 200.291 574.748C200.958 577.234 199.333 579.738 198.023 581.69C193.404 582.066 182.943 582.997 179.237 580.081C178.264 579.316 177.615 578.477 177.563 577.191C177.476 575.057 178.689 573.157 179.948 571.557Z"/>
	<path fill="#16365F" d="M181.304 460.104C185.627 459.888 190.486 459.595 194.774 460.122C196.772 460.368 198.854 460.84 200.066 462.591C200.694 463.497 200.705 464.606 200.46 465.648C199.975 467.71 199.306 469.286 197.428 470.414C192.539 470.337 187.261 471.11 182.44 470.265C180.782 469.974 179.149 469.407 178.176 467.95C177.466 466.888 177.378 465.478 177.679 464.243C178.192 462.146 179.545 461.174 181.304 460.104Z"/>
	<path fill="#16365F" d="M180.295 505.094C185.383 504.718 193.762 503.881 198.471 506.092C199.977 506.799 200.463 507.614 201.058 509.116C200.871 511.648 199.512 513.556 197.688 515.237L197.214 515.264C192.594 515.512 181.609 516.651 178.4 512.808C177.811 512.103 177.556 511.41 177.545 510.517C177.518 508.364 178.902 506.588 180.295 505.094Z"/>
	<path fill="#16365F" d="M180.142 527.091C184.188 526.701 188.715 526.482 192.771 526.735C195.177 526.885 198.269 527.268 199.795 529.415C200.532 530.453 200.712 531.918 200.461 533.146C200.037 535.22 198.468 536.08 196.806 537.073C192.175 537.593 182.675 538.317 178.894 535.245C178.058 534.566 177.284 533.588 177.302 532.456C177.336 530.285 178.658 528.533 180.142 527.091Z"/>
	<path fill="#16365F" d="M181.049 616.133C184.846 616.015 188.701 615.781 192.497 615.882C194.828 615.945 198.106 616.174 199.637 618.233C200.312 619.141 200.401 620.149 200.273 621.238C199.978 623.734 198.927 624.975 197.021 626.502C193.385 626.431 189.705 626.771 186.098 626.645C183.51 626.555 179.917 625.703 178.252 623.515C177.532 622.57 177.074 621.465 177.389 620.258C177.863 618.438 179.562 617.104 181.049 616.133Z"/>
	<path fill="#16365F" d="M182.234 593.685C185.928 593.691 190.147 593.091 193.761 593.656C195.847 593.982 198.582 595.041 199.76 596.925C200.427 597.993 200.731 599.132 200.277 600.359C199.577 602.254 197.714 603.338 196.012 604.185C191.492 604.28 185.232 605.094 180.952 603.498C179.534 602.969 178.256 601.992 177.802 600.483C177.364 599.025 177.715 596.762 178.605 595.538C179.485 594.33 180.877 594.032 182.234 593.685Z"/>
	<path fill="#16365F" d="M179.998 549.579C184.534 549.064 195.353 547.986 198.936 550.852C199.89 551.616 200.511 552.506 200.515 553.775C200.52 555.915 199.327 557.912 198.01 559.497C192.976 559.733 186.264 560.522 181.434 559.018C179.704 558.479 178.814 557.797 177.938 556.186C177.541 553.417 178.463 551.83 179.998 549.579Z"/>
	<path fill="#FAC972" d="M627.312 566.479L689.901 566.551Q690.012 580.522 689.945 594.493C685.553 596.334 681.807 598.409 679.339 602.723C676.994 606.823 676.646 612.221 677.985 616.709C679.363 621.329 682.707 625.015 686.986 627.167Q687.392 627.375 687.808 627.562Q688.225 627.749 688.65 627.915Q689.075 628.08 689.508 628.224Q689.941 628.368 690.381 628.49Q690.82 628.612 691.266 628.712Q691.711 628.811 692.161 628.888Q692.611 628.965 693.064 629.018Q693.517 629.072 693.972 629.103Q694.428 629.134 694.884 629.142Q695.34 629.15 695.796 629.134Q696.252 629.119 696.707 629.08Q697.161 629.042 697.614 628.98Q698.066 628.919 698.514 628.835Q698.963 628.75 699.406 628.644Q699.85 628.537 700.288 628.407Q700.725 628.278 701.156 628.127C705.329 626.656 708.769 623.673 710.567 619.605C712.839 614.466 712.31 608.1 710.22 602.968C708.616 599.033 705.265 596.774 701.526 595.119Q701.709 580.964 702.086 566.813L763.105 566.556C774.225 566.55 785.405 566.319 796.516 566.733C797.424 576.103 796.986 585.843 796.993 595.26C792.417 597.909 788.611 600.393 786.205 605.385C784.209 609.526 784.208 614.406 785.881 618.66C787.649 623.154 791.395 626.749 795.843 628.571C800.346 630.415 805.498 630.216 809.959 628.33C814.024 626.611 816.915 623.449 818.508 619.354C820.323 614.686 820.401 609.582 818.369 604.975C816.416 600.545 813.025 597.321 808.524 595.616L808.482 566.959L867.393 566.509C867.047 586.582 866.666 606.726 866.642 626.799C866.617 648.327 867.09 669.837 866.899 691.375C865.824 739.114 867.845 787.012 866.071 834.727C846.923 834.416 827.732 834.789 808.575 834.726L674.998 834.506C648.516 834.562 621.796 835.405 595.341 834.562Q612.297 700.636 627.312 566.479Z"/>
	<path fill="#DCE6EC" d="M148.51 373.671C156.864 373.278 165.411 373.645 173.782 373.691L222.291 373.927L365.65 373.666L548.42 373.713L605.056 373.796C615.707 373.822 627.216 372.984 637.716 374.676C642.824 375.499 647.482 378.511 651.083 382.139C654.535 385.617 657.172 389.899 658.113 394.755C659.485 401.839 658.972 409.686 658.972 416.875L658.967 448.119Q659.455 501.581 659.242 555.044C651.357 555.171 643.454 555.064 635.566 555.066L635.548 452.347C635.521 436.58 636.385 420.441 635.672 404.729C635.594 402.997 635.441 398.423 634.282 397.194C632.924 395.752 631.003 395.125 629.063 395.037C618.957 394.578 608.493 395.133 598.348 395.12L528.458 395.081L285.527 395.128L200.866 395.084C184.931 395.095 168.878 394.807 152.959 395.365C151.004 395.434 148.947 395.366 147.138 396.192C146.217 396.613 145.302 397.257 144.597 397.982C143.383 399.231 142.982 400.469 142.836 402.169C142.364 407.703 142.743 413.506 142.785 419.059L142.997 451.845L142.898 555.75L143.017 652.069C143.034 667.447 142.136 683.9 143.214 699.137C143.349 701.041 143.364 703.289 144.733 704.699C145.697 705.693 147.05 706.248 148.419 706.366C153.383 706.797 158.685 706.356 163.695 706.326L192.701 706.233L285.233 706.242L599.5 705.758Q596.515 726.559 594.18 747.443L306.392 747.006L200.733 747.008C182.599 747.004 164.05 747.823 145.956 746.834C142.053 746.621 138.26 745.814 134.689 744.183C127.923 741.093 122.758 735.103 120.268 728.138Q119.505 725.989 119.08 723.748Q118.655 721.508 118.578 719.229C117.85 701.394 118.456 683.298 118.468 665.441L118.508 562.721L118.482 458.076C118.483 440.844 117.798 423.326 118.536 406.127C118.695 402.424 118.902 397.341 120.592 394.036C121.868 391.543 123.127 389.069 124.802 386.812C130.744 378.803 138.87 375.133 148.51 373.671Z"/>
	<path fill="#16365F" d="M395.856 715.241Q396.099 715.195 396.345 715.161Q396.59 715.127 396.837 715.105Q397.084 715.083 397.331 715.074Q397.579 715.064 397.826 715.066Q398.074 715.068 398.321 715.083Q398.569 715.097 398.815 715.123Q399.061 715.15 399.306 715.188Q399.551 715.226 399.793 715.277Q400.036 715.327 400.275 715.389Q400.515 715.451 400.752 715.525Q400.988 715.598 401.221 715.683Q401.453 715.769 401.682 715.865Q401.91 715.961 402.133 716.069Q402.356 716.176 402.574 716.294Q402.792 716.413 403.003 716.541Q403.215 716.67 403.42 716.809Q403.625 716.948 403.823 717.096Q404.021 717.245 404.212 717.403Q404.403 717.561 404.585 717.729Q404.768 717.896 404.942 718.072Q405.116 718.248 405.282 718.432Q405.447 718.617 405.604 718.809Q405.76 719.001 405.907 719.201Q406.053 719.4 406.19 719.607Q406.327 719.813 406.453 720.026Q406.58 720.239 406.696 720.458Q406.812 720.677 406.917 720.901Q407.022 721.125 407.117 721.355Q407.211 721.584 407.293 721.817Q407.376 722.051 407.448 722.288Q407.519 722.525 407.579 722.766Q407.638 723.006 407.686 723.249Q407.734 723.492 407.77 723.737Q407.806 723.982 407.83 724.229Q407.854 724.475 407.865 724.723Q407.877 724.97 407.877 725.218Q407.877 725.465 407.864 725.713Q407.852 725.96 407.828 726.207Q407.803 726.453 407.767 726.698Q407.731 726.943 407.682 727.186Q407.634 727.429 407.574 727.669Q407.514 727.909 407.442 728.147Q407.37 728.384 407.287 728.617Q407.204 728.85 407.109 729.079Q407.015 729.308 406.909 729.532Q406.804 729.756 406.687 729.975Q406.571 730.193 406.444 730.406Q406.317 730.619 406.18 730.825Q406.042 731.031 405.895 731.23Q405.748 731.43 405.592 731.622Q405.435 731.813 405.269 731.997Q405.103 732.181 404.929 732.357Q404.754 732.533 404.571 732.7Q404.388 732.867 404.197 733.025Q404.007 733.182 403.808 733.331Q403.61 733.479 403.404 733.617Q403.199 733.756 402.987 733.884Q402.775 734.013 402.557 734.13Q402.34 734.248 402.116 734.355Q401.893 734.462 401.664 734.558Q401.436 734.654 401.203 734.739Q400.971 734.823 400.734 734.897Q400.497 734.97 400.258 735.032Q400.018 735.093 399.775 735.143Q399.53 735.193 399.283 735.232Q399.035 735.27 398.786 735.296Q398.537 735.322 398.287 735.335Q398.038 735.349 397.787 735.35Q397.537 735.351 397.287 735.34Q397.037 735.329 396.788 735.306Q396.539 735.283 396.291 735.247Q396.043 735.211 395.798 735.163Q395.552 735.116 395.309 735.056Q395.066 734.996 394.826 734.924Q394.586 734.852 394.351 734.769Q394.115 734.685 393.883 734.59Q393.652 734.495 393.425 734.389Q393.198 734.282 392.977 734.165Q392.756 734.048 392.542 733.919Q392.327 733.791 392.118 733.653Q391.91 733.514 391.708 733.365Q391.507 733.217 391.313 733.058Q391.12 732.9 390.934 732.732Q390.748 732.564 390.571 732.387Q390.394 732.211 390.226 732.025Q390.058 731.84 389.899 731.647Q389.74 731.453 389.591 731.252Q389.442 731.051 389.303 730.843Q389.164 730.635 389.035 730.42Q388.906 730.206 388.788 729.985Q388.671 729.764 388.564 729.538Q388.457 729.312 388.361 729.08Q388.266 728.849 388.182 728.613Q388.098 728.378 388.025 728.138Q387.953 727.898 387.893 727.656Q387.832 727.413 387.784 727.167Q387.736 726.921 387.699 726.674Q387.663 726.426 387.639 726.177Q387.615 725.928 387.604 725.678Q387.592 725.428 387.593 725.178Q387.594 724.927 387.607 724.678Q387.62 724.428 387.645 724.179Q387.671 723.93 387.708 723.682Q387.746 723.435 387.796 723.19Q387.845 722.944 387.907 722.702Q387.969 722.459 388.043 722.22Q388.117 721.981 388.202 721.746Q388.287 721.511 388.384 721.28Q388.481 721.049 388.589 720.823Q388.698 720.598 388.817 720.378Q388.936 720.158 389.066 719.944Q389.196 719.73 389.336 719.523Q389.476 719.315 389.626 719.115Q389.777 718.915 389.937 718.723Q390.097 718.53 390.266 718.346Q390.435 718.162 390.614 717.986Q390.792 717.81 390.978 717.644Q391.165 717.477 391.36 717.32Q391.554 717.162 391.757 717.015Q391.959 716.867 392.168 716.73Q392.377 716.593 392.593 716.466Q392.808 716.339 393.03 716.223Q393.252 716.107 393.479 716.002Q393.706 715.897 393.938 715.803Q394.17 715.709 394.407 715.627Q394.643 715.545 394.883 715.475Q395.123 715.404 395.367 715.346Q395.61 715.287 395.856 715.241Z"/>
	<path fill="#FAC972" d="M879.064 566.933C891.45 566.762 903.868 566.973 916.256 566.995C919.29 588.458 921.214 610.148 923.732 631.682L936.542 741.764C939.653 770.452 942.423 798.985 946.65 827.544C935.462 818.279 925.944 806.87 915.109 797.137Q911.355 753.865 908.051 710.556C907.765 704.991 907.231 686.961 904.126 683.105C902.915 681.602 901.629 680.929 899.707 680.776C898.997 681.097 898.359 681.23 897.881 681.879C896.736 683.434 896.646 685.447 896.641 687.309C896.611 698.093 898.753 712.194 899.74 723.232Q903.198 760.469 906.116 797.753C896.822 806.76 888.314 816.575 878.746 825.315C878.057 814.549 878.579 803.493 878.563 792.694L878.527 730.305Q878.131 648.614 879.064 566.933Z"/>
	<path fill="#C3D8E7" d="M459.171 758.595C472.937 758.248 486.776 758.513 500.549 758.462Q546.568 758.137 592.586 758.598C591.862 769.271 589.98 779.959 588.614 790.57C587.036 802.823 585.881 815.102 584.559 827.382C584.388 829.9 583.917 832.446 583.574 834.95L519.111 834.826C517.723 829.965 515.669 825.486 512.034 821.875C503.376 813.275 491.032 814.972 479.894 815.031Q469.331 786.887 459.171 758.595Z"/>
	<path fill="#DCE6EC" d="M353.867 757.963C384.996 757.622 416.428 757.475 447.549 758.311L467.789 815.011L439.75 815.025L326.02 815.42C335.707 796.516 344.552 777.068 353.867 757.963Z"/>
	<path fill="#C3D8E7" d="M744.324 495.684C749.593 495.126 754.853 496.249 759.827 497.923Q757.873 499.536 756.094 501.341C741.472 516.029 739.478 535.306 739.531 554.991L717.75 554.966L701.513 554.94C701.362 540.181 702.193 525.503 711.601 513.346C719.704 502.875 731.406 497.38 744.324 495.684Z"/>
	<path fill="#DCE6EC" d="M298.68 825.656C311.833 825.251 325.129 825.6 338.296 825.615L420.4 825.799L472.754 825.945C481.808 826.006 491.404 825.444 500.379 826.609C503.872 829.2 505.451 831.341 507.252 835.196L499.625 835.379L381.102 835.434C350.681 835.447 320.178 835.918 289.766 835.345C291.96 830.943 293.935 827.645 298.68 825.656Z"/>
	<path fill="#C3D8E7" d="M794.48 495.695C794.611 495.691 794.742 495.685 794.873 495.683C808.044 495.484 819.8 498.764 829.379 508.156C842.211 520.738 843.924 538.078 844.12 555.088L837.125 555.104L808.817 555.158Q808.87 551.138 808.79 547.118C808.347 525.784 800.803 511.797 785.725 497.384C788.667 496.568 791.442 496.013 794.48 495.695Z"/>
	<path fill="#C3D8E7" d="M772.623 503.358C776.134 503.869 780.169 508.182 782.608 510.629C794.935 522.998 796.827 538.296 796.844 554.995L777.283 555.08L751.473 555.008C751.397 548.433 751.399 541.837 752.441 535.327C754.673 521.391 761.265 511.552 772.623 503.358Z"/>
	<path fill="#FAC972" d="M910.432 806.296C914.873 808.261 935.048 829.535 940.568 834.543C931.64 834.315 922.682 834.447 913.75 834.436L883.37 834.537L910.432 806.296Z"/>
	<path fill="#F9FBFB" d="M800.575 606.837Q800.714 606.789 800.855 606.749Q800.997 606.708 801.14 606.674Q801.283 606.64 801.428 606.613Q801.572 606.586 801.718 606.566Q801.864 606.546 802.01 606.534Q802.157 606.521 802.304 606.515Q802.451 606.51 802.598 606.511Q802.745 606.513 802.892 606.521Q803.039 606.53 803.185 606.546Q803.331 606.562 803.476 606.585Q803.622 606.608 803.766 606.638Q803.91 606.667 804.052 606.704Q804.194 606.741 804.335 606.785Q804.475 606.829 804.613 606.879Q804.752 606.93 804.887 606.987Q805.023 607.044 805.155 607.108Q805.288 607.172 805.417 607.242Q805.546 607.312 805.672 607.388Q805.798 607.464 805.92 607.547Q806.042 607.629 806.159 607.717Q806.277 607.805 806.391 607.899Q806.504 607.993 806.612 608.092Q806.721 608.191 806.825 608.295Q806.928 608.4 807.027 608.509Q807.125 608.618 807.219 608.732Q807.312 608.846 807.399 608.964Q807.487 609.082 807.568 609.205Q807.65 609.327 807.725 609.453Q807.801 609.58 807.87 609.709Q807.94 609.839 808.002 609.972Q808.065 610.105 808.122 610.241Q808.178 610.377 808.228 610.515Q808.278 610.653 808.321 610.794Q808.364 610.935 808.4 611.077Q808.436 611.22 808.465 611.364Q808.494 611.508 808.516 611.654Q808.538 611.799 808.553 611.945Q808.568 612.092 808.576 612.238Q808.584 612.385 808.585 612.532Q808.585 612.679 808.579 612.826Q808.572 612.973 808.559 613.12Q808.545 613.266 808.524 613.412Q808.504 613.557 808.476 613.702Q808.448 613.846 808.414 613.989Q808.379 614.132 808.337 614.273Q808.296 614.414 808.247 614.553Q808.199 614.692 808.144 614.828Q808.089 614.965 808.027 615.098Q807.965 615.232 807.897 615.362Q807.829 615.492 807.755 615.619Q807.681 615.746 807.6 615.869Q807.52 615.993 807.433 616.112Q807.347 616.231 807.255 616.346Q807.163 616.46 807.066 616.57Q806.968 616.681 806.866 616.786Q806.763 616.891 806.655 616.991Q806.547 617.092 806.435 617.186Q806.323 617.281 806.206 617.37Q806.089 617.46 805.968 617.543Q805.847 617.627 805.722 617.704Q805.597 617.782 805.468 617.853Q805.339 617.924 805.207 617.989Q805.076 618.054 804.941 618.113Q804.806 618.171 804.668 618.223Q804.481 618.294 804.289 618.352Q804.098 618.41 803.903 618.455Q803.708 618.5 803.511 618.532Q803.314 618.565 803.115 618.584Q802.916 618.603 802.716 618.609Q802.516 618.615 802.316 618.608Q802.116 618.6 801.917 618.58Q801.718 618.559 801.521 618.526Q801.324 618.492 801.129 618.446Q800.935 618.399 800.744 618.34Q800.553 618.281 800.366 618.209Q800.179 618.138 799.998 618.054Q799.816 617.97 799.641 617.874Q799.465 617.779 799.296 617.672Q799.127 617.564 798.966 617.446Q798.804 617.328 798.651 617.2Q798.498 617.072 798.353 616.933Q798.208 616.795 798.073 616.648Q797.938 616.5 797.813 616.344Q797.688 616.188 797.574 616.024Q797.459 615.86 797.356 615.689Q797.252 615.518 797.16 615.34Q797.068 615.162 796.989 614.979Q796.909 614.796 796.841 614.608Q796.773 614.419 796.718 614.227Q796.663 614.035 796.621 613.839Q796.579 613.644 796.549 613.446Q796.52 613.248 796.504 613.049Q796.488 612.849 796.485 612.649Q796.482 612.449 796.492 612.25Q796.502 612.05 796.526 611.851Q796.549 611.653 796.586 611.456Q796.622 611.259 796.672 611.066Q796.721 610.872 796.784 610.682Q796.846 610.492 796.92 610.306Q796.995 610.12 797.081 609.94Q797.168 609.76 797.266 609.586Q797.365 609.412 797.474 609.244Q797.584 609.077 797.704 608.918Q797.825 608.758 797.955 608.607Q798.086 608.455 798.226 608.313Q798.367 608.17 798.516 608.038Q798.666 607.905 798.824 607.782Q798.982 607.66 799.148 607.548Q799.313 607.436 799.486 607.335Q799.659 607.234 799.838 607.145Q800.017 607.056 800.201 606.979Q800.386 606.902 800.575 606.837Z"/>
	<path fill="#F9FBFB" d="M693.401 605.814Q693.591 605.756 693.784 605.712Q693.978 605.667 694.174 605.635Q694.37 605.603 694.567 605.584Q694.765 605.565 694.963 605.559Q695.161 605.553 695.36 605.561Q695.558 605.568 695.755 605.589Q695.953 605.609 696.148 605.643Q696.344 605.676 696.537 605.722Q696.73 605.769 696.92 605.828Q697.109 605.887 697.294 605.958Q697.479 606.03 697.659 606.113Q697.839 606.197 698.014 606.292Q698.188 606.388 698.355 606.494Q698.522 606.601 698.682 606.718Q698.842 606.836 698.994 606.964Q699.146 607.091 699.289 607.229Q699.432 607.367 699.566 607.513Q699.699 607.66 699.823 607.815Q699.946 607.971 700.06 608.134Q700.173 608.297 700.275 608.467Q700.377 608.637 700.467 608.814Q700.558 608.991 700.636 609.173Q700.715 609.355 700.781 609.542Q700.848 609.729 700.902 609.92Q700.955 610.112 700.997 610.306Q701.038 610.5 701.066 610.696Q701.094 610.893 701.109 611.091Q701.124 611.289 701.126 611.487Q701.128 611.686 701.117 611.884Q701.105 612.082 701.081 612.279Q701.057 612.476 701.019 612.671Q700.982 612.866 700.932 613.058Q700.882 613.25 700.819 613.438Q700.756 613.627 700.681 613.81Q700.606 613.994 700.519 614.172Q700.432 614.351 700.333 614.523Q700.234 614.695 700.125 614.861Q700.015 615.026 699.894 615.183Q699.773 615.341 699.642 615.49Q699.512 615.64 699.371 615.78Q699.231 615.92 699.081 616.051Q698.932 616.182 698.774 616.302Q698.617 616.423 698.451 616.533Q698.286 616.642 698.114 616.741Q697.941 616.84 697.763 616.927Q697.584 617.014 697.401 617.089Q697.217 617.164 697.029 617.226Q696.84 617.289 696.648 617.339Q696.507 617.376 696.365 617.405Q696.223 617.435 696.08 617.458Q695.937 617.481 695.792 617.497Q695.648 617.513 695.503 617.521Q695.358 617.53 695.213 617.532Q695.068 617.534 694.923 617.529Q694.778 617.524 694.633 617.511Q694.489 617.499 694.345 617.48Q694.201 617.461 694.058 617.435Q693.915 617.408 693.774 617.375Q693.633 617.342 693.493 617.302Q693.354 617.263 693.216 617.216Q693.079 617.169 692.943 617.116Q692.808 617.063 692.676 617.003Q692.544 616.944 692.414 616.878Q692.285 616.812 692.159 616.74Q692.033 616.667 691.911 616.589Q691.789 616.511 691.67 616.427Q691.552 616.343 691.438 616.253Q691.324 616.163 691.214 616.068Q691.104 615.973 691 615.873Q690.895 615.773 690.795 615.667Q690.695 615.562 690.6 615.452Q690.505 615.342 690.416 615.228Q690.327 615.113 690.243 614.995Q690.16 614.876 690.082 614.753Q690.004 614.631 689.932 614.505Q689.86 614.378 689.795 614.249Q689.729 614.12 689.67 613.987Q689.611 613.854 689.558 613.719Q689.505 613.584 689.459 613.446Q689.413 613.309 689.374 613.169Q689.335 613.029 689.302 612.888Q689.27 612.746 689.244 612.604Q689.218 612.461 689.2 612.317Q689.181 612.173 689.169 612.028Q689.157 611.883 689.153 611.738Q689.148 611.593 689.15 611.448Q689.153 611.303 689.162 611.158Q689.171 611.013 689.188 610.869Q689.204 610.725 689.228 610.581Q689.251 610.438 689.281 610.296Q689.311 610.154 689.349 610.014Q689.386 609.873 689.43 609.735Q689.473 609.597 689.524 609.461Q689.574 609.324 689.632 609.191Q689.689 609.057 689.752 608.927Q689.816 608.796 689.885 608.669Q689.955 608.542 690.031 608.418Q690.107 608.294 690.188 608.174Q690.27 608.054 690.357 607.938Q690.445 607.822 690.538 607.711Q690.631 607.599 690.729 607.492Q690.827 607.385 690.931 607.283Q691.034 607.182 691.142 607.085Q691.25 606.988 691.363 606.896Q691.476 606.805 691.593 606.719Q691.71 606.633 691.831 606.553Q691.952 606.473 692.076 606.398Q692.201 606.324 692.329 606.256Q692.458 606.188 692.589 606.126Q692.72 606.064 692.854 606.009Q692.989 605.954 693.125 605.905Q693.262 605.856 693.401 605.814Z"/>
	<path fill="#16365F" d="M318.622 215.555Q318.662 214.02 318.762 212.488C320.245 187.253 329.927 163.341 349.142 146.385C368.716 129.111 393.591 120.01 419.747 121.729C438.85 122.985 465.397 131.754 478.305 146.562C476.849 148.814 475.276 150.562 473.389 152.445Q471.205 150.498 468.903 148.691Q466.601 146.884 464.191 145.225Q461.781 143.566 459.272 142.06Q456.762 140.555 454.164 139.209Q451.565 137.864 448.888 136.684Q446.21 135.503 443.464 134.493Q440.718 133.482 437.914 132.646Q435.11 131.809 432.259 131.149C409.784 125.876 384.935 131.045 365.561 143.261C347.017 154.954 333.092 174.986 328.443 196.347Q328.193 197.451 327.971 198.562Q327.749 199.672 327.554 200.788Q327.36 201.904 327.194 203.024Q327.028 204.144 326.89 205.268Q326.752 206.392 326.642 207.519Q326.532 208.646 326.451 209.775Q326.37 210.905 326.316 212.036Q326.263 213.167 326.239 214.299Q326.214 215.432 326.218 216.564Q326.221 217.696 326.254 218.828Q326.286 219.96 326.346 221.091Q326.407 222.222 326.496 223.351Q326.585 224.48 326.702 225.606Q326.819 226.732 326.965 227.855Q327.11 228.978 327.284 230.097Q327.457 231.216 327.659 232.331Q327.86 233.445 328.09 234.554Q328.319 235.663 328.576 236.766Q328.834 237.868 329.118 238.964Q329.403 240.06 329.716 241.149Q330.028 242.238 330.367 243.318Q330.707 244.398 331.073 245.47Q331.44 246.541 331.833 247.603Q332.226 248.665 332.646 249.717Q333.066 250.768 333.512 251.809Q333.958 252.85 334.43 253.88Q334.902 254.909 335.399 255.926Q335.897 256.943 336.42 257.948Q336.943 258.952 337.491 259.943Q338.039 260.934 338.612 261.911Q339.185 262.888 339.782 263.85Q340.379 264.812 341 265.759Q341.56 266.622 342.141 267.47Q342.722 268.319 343.323 269.153Q343.925 269.987 344.547 270.806Q345.169 271.625 345.81 272.429Q346.452 273.233 347.113 274.02Q347.774 274.808 348.454 275.579Q349.135 276.351 349.834 277.105Q350.533 277.859 351.25 278.596Q351.967 279.333 352.702 280.053Q353.437 280.772 354.189 281.473Q354.942 282.174 355.711 282.857Q356.48 283.539 357.266 284.202Q358.052 284.866 358.854 285.51Q359.656 286.154 360.473 286.778Q361.29 287.402 362.123 288.006Q362.955 288.61 363.802 289.193Q364.649 289.776 365.51 290.339Q366.371 290.901 367.245 291.442Q368.12 291.984 369.007 292.503Q369.895 293.023 370.795 293.521Q371.695 294.018 372.607 294.494Q373.518 294.969 374.442 295.423Q375.365 295.876 376.299 296.306Q377.233 296.736 378.177 297.144Q379.122 297.551 380.076 297.935Q381.029 298.319 381.993 298.68Q382.956 299.04 383.927 299.377Q384.899 299.714 385.879 300.027Q386.858 300.34 387.845 300.629Q388.832 300.918 389.826 301.183Q390.82 301.448 391.82 301.688Q392.819 301.928 393.825 302.144C412.491 305.964 431.037 304.708 448.527 297.06C451.792 295.633 455.17 294.217 458.132 292.219C480.32 277.257 494.432 259.268 499.425 232.45C502.917 213.701 500.244 190.635 489.198 174.687C490.82 172.411 492.873 170.531 494.87 168.591C504.709 179.127 508.918 206.016 508.411 220.002Q508.358 221.188 508.277 222.373Q508.196 223.557 508.086 224.74Q507.976 225.922 507.837 227.101Q507.699 228.28 507.531 229.456Q507.364 230.631 507.169 231.802Q506.973 232.973 506.749 234.139Q506.525 235.305 506.273 236.466Q506.021 237.626 505.741 238.78Q505.461 239.934 505.153 241.08Q504.845 242.227 504.509 243.366Q504.173 244.505 503.81 245.635Q503.447 246.766 503.056 247.887Q502.666 249.008 502.248 250.12Q501.83 251.231 501.386 252.332Q500.942 253.433 500.471 254.523Q500 255.613 499.503 256.691Q499.005 257.769 498.482 258.835Q497.959 259.901 497.41 260.954Q496.861 262.007 496.287 263.046Q495.713 264.085 495.113 265.11Q494.514 266.135 493.89 267.145Q493.266 268.156 492.618 269.15Q491.97 270.145 491.297 271.124Q490.625 272.103 489.93 273.065Q489.234 274.027 488.515 274.972Q487.796 275.917 487.055 276.844Q486.313 277.772 485.55 278.681Q484.786 279.59 484 280.48Q483.215 281.371 482.408 282.242Q481.601 283.113 480.773 283.964Q479.945 284.815 479.097 285.646Q478.249 286.477 477.381 287.287Q476.53 288.066 475.659 288.824Q474.789 289.581 473.9 290.317Q473.012 291.053 472.105 291.767Q471.198 292.481 470.275 293.172Q469.351 293.864 468.41 294.532Q467.47 295.201 466.513 295.846Q465.556 296.491 464.584 297.112Q463.611 297.734 462.624 298.331Q461.637 298.928 460.635 299.501Q459.633 300.073 458.618 300.621Q457.602 301.169 456.573 301.692Q455.545 302.215 454.503 302.712Q453.462 303.209 452.409 303.681Q451.356 304.152 450.291 304.598Q449.227 305.043 448.152 305.462Q447.077 305.881 445.991 306.274Q444.906 306.666 443.812 307.032Q442.717 307.397 441.614 307.736Q440.511 308.075 439.4 308.386Q438.289 308.697 437.171 308.981Q436.052 309.265 434.927 309.521Q433.802 309.778 432.671 310.006Q431.54 310.235 430.403 310.435Q429.267 310.636 428.126 310.808Q426.985 310.981 425.84 311.125Q424.696 311.27 423.548 311.386Q422.4 311.502 421.249 311.59Q420.098 311.678 418.946 311.738Q417.794 311.797 416.64 311.828Q415.487 311.86 414.333 311.862Q413.179 311.865 412.025 311.84Q410.872 311.814 409.719 311.76C395.22 311.141 380.804 307.74 368.013 300.81C365.041 298.912 362.105 296.953 359.154 295.022C355.701 292.345 352.23 289.605 349.003 286.659C328.058 267.534 319.952 243.127 318.622 215.555Z"/>
	<path fill="#76B995" d="M377.808 281.847C374.781 280.054 371.87 277.91 369.128 275.711C352.199 262.132 342.283 244.615 340.024 223.011Q339.854 221.231 339.771 219.445Q339.688 217.659 339.692 215.871Q339.696 214.082 339.787 212.297Q339.878 210.511 340.055 208.732Q340.233 206.952 340.497 205.184Q340.761 203.415 341.111 201.662Q341.461 199.908 341.895 198.174Q342.33 196.439 342.848 194.728Q343.367 193.017 343.968 191.333Q344.569 189.649 345.251 187.996Q345.933 186.343 346.695 184.725Q347.457 183.108 348.297 181.529Q349.136 179.95 350.052 178.414Q350.967 176.878 351.956 175.389Q352.945 173.899 354.006 172.459Q355.066 171.02 356.195 169.633Q357.341 168.218 358.555 166.862Q359.77 165.505 361.051 164.211Q362.332 162.917 363.675 161.688Q365.019 160.459 366.422 159.298Q367.824 158.138 369.283 157.048Q370.742 155.959 372.254 154.943Q373.765 153.928 375.325 152.989Q376.885 152.05 378.489 151.19Q380.094 150.329 381.74 149.55Q383.385 148.77 385.067 148.074Q386.75 147.377 388.464 146.765Q390.179 146.153 391.922 145.627Q393.665 145.101 395.433 144.662Q397.2 144.223 398.987 143.873Q400.773 143.523 402.575 143.262Q404.377 143.001 406.19 142.83C426.905 140.849 447.415 148.295 463.288 161.406C460.466 164.869 457.204 167.953 454.039 171.098C449.868 167.478 445.528 164.262 440.618 161.699Q439.297 161.012 437.944 160.392Q436.591 159.771 435.21 159.218Q433.828 158.665 432.42 158.18Q431.013 157.696 429.583 157.281Q428.153 156.867 426.705 156.524Q425.257 156.18 423.793 155.908Q422.33 155.637 420.854 155.438Q419.379 155.239 417.896 155.112Q416.413 154.986 414.925 154.933Q413.438 154.88 411.949 154.901Q410.461 154.921 408.975 155.015Q407.49 155.109 406.011 155.276Q404.532 155.443 403.063 155.683Q401.593 155.922 400.138 156.234Q398.682 156.546 397.244 156.929Q395.806 157.312 394.388 157.766C379.16 162.545 365.899 174.601 358.617 188.676C350.977 203.442 350.106 220.676 355.176 236.426C360.563 253.159 373.037 265.556 388.381 273.446C384.91 276.317 381.469 279.219 377.808 281.847Z"/>
	<path fill="#D95C65" d="M470.431 193.792C473.565 190.78 476.637 187.613 479.953 184.806C488.453 199.119 489.295 219.95 485.177 235.787Q484.722 237.52 484.183 239.228Q483.644 240.937 483.023 242.617Q482.403 244.298 481.701 245.946Q481 247.595 480.219 249.207Q479.439 250.82 478.582 252.393Q477.724 253.966 476.792 255.496Q475.859 257.025 474.854 258.508Q473.848 259.991 472.772 261.423Q471.696 262.856 470.552 264.234Q469.408 265.613 468.198 266.934Q466.989 268.256 465.717 269.517Q464.445 270.779 463.113 271.978Q461.782 273.176 460.394 274.309Q459.006 275.441 457.564 276.506Q456.123 277.57 454.632 278.563Q453.141 279.556 451.604 280.476C434.376 290.56 412.531 293.274 393.319 288.07C387.833 286.585 382.887 284.371 377.808 281.847C381.469 279.219 384.91 276.317 388.381 273.446C405.122 280.144 421.858 280.224 438.555 273.177C453.422 266.902 464.065 255.189 469.979 240.234C475.739 225.668 475.529 208.527 470.431 193.792Z"/>
	<path fill="#16365F" d="M489.513 147.908C489.752 142.32 490.228 125.256 493.289 121.237C493.896 120.441 494.786 119.888 495.788 119.865C497.081 119.836 498.158 120.246 498.949 121.316C501.672 124.994 498.892 134.579 498.18 138.841C502.492 135.869 512.879 123.425 515.996 122.369C517.209 121.958 518.37 121.905 519.504 122.605C520.683 123.332 520.736 123.938 521.054 125.178C520.004 130.555 512.9 135.834 508.985 139.509C514.008 139.318 522.191 137.923 526.34 140.975C527.125 142.205 527.271 142.719 527.179 144.177C523.922 151.021 505.749 144.269 498.692 150.071C499.93 152.308 512.552 151.122 516.481 155.268C516.584 155.377 516.684 155.49 516.786 155.601C516.528 157.088 516.377 158.612 515.138 159.645C512.325 161.992 504.933 160.091 501.511 159.664Q496.26 158.788 490.976 158.147C485.59 162.586 481.126 168.084 476.167 172.985C461.083 187.895 446.426 203.168 431.643 218.374C425.681 224.506 418.605 233.442 411.439 237.745C407.766 234.923 383.225 210.801 382.381 208.279C381.933 206.942 382.11 206.132 382.627 204.872C383.637 203.956 384.174 203.363 385.649 203.331C390.129 203.232 406.694 223.473 411.26 227.332L412.016 227.96C418.362 220.022 426.245 213.003 433.357 205.731L466.128 172.128C473.979 164.126 482.046 156.273 489.513 147.908Z"/>
	<path fill="#C3D8E7" d="M211.279 197.495C213.391 205.41 215.593 212.557 220.861 218.99C227.194 226.723 235.903 231.71 245.877 232.67C231.074 240.038 222.807 241.979 215.994 258.341C214.559 261.787 213.578 265.39 212.134 268.828L211.961 269.232Q211.057 265.469 209.608 261.88Q208.159 258.292 206.197 254.956C199.582 243.816 189.293 236.747 176.846 233.546C180.565 232.238 184.277 230.869 187.762 229.008C200.628 222.138 207.072 211.118 211.279 197.495Z"/>
</svg>
